<?xml version="1.0" encoding="utf-8"?>
<!-- Generator: Adobe Illustrator 28.1.0, SVG Export Plug-In . SVG Version: 6.00 Build 0)  -->
<svg version="1.1" id="Camada_1" xmlns="http://www.w3.org/2000/svg" xmlns:xlink="http://www.w3.org/1999/xlink" x="0px" y="0px"
	 viewBox="0 0 850.39 176.39" style="enable-background:new 0 0 850.39 176.39;" xml:space="preserve">
<style type="text/css">
	.st0{fill:#FFFFFF;}
</style>
<path d="M787.18,76.1c0-3.21-0.67-5.96-2-8.26c-1.34-2.28-3.21-4.19-5.62-5.73c-2.41-1.52-5.26-2.65-8.55-3.37
	c-3.29-0.73-6.89-1.09-10.8-1.09c-4.12,0-7.84,0.45-11.13,1.34c-3.29,0.88-6.09,2.11-8.39,3.68c-2.3,1.56-4.05,3.43-5.27,5.6
	c-1.23,2.17-1.84,4.55-1.84,7.11c0,2.65,0.67,4.49,2,5.48c1.35,1.01,2.93,1.51,4.77,1.51c1.99,0,3.53-0.32,4.59-0.96
	c1.07-0.64,1.93-1.45,2.59-2.41c0.64-0.97,1.19-2.03,1.66-3.2c0.46-1.16,1.04-2.23,1.78-3.2c0.73-0.96,1.7-1.76,2.93-2.4
	c1.22-0.64,2.94-0.97,5.17-0.97c1.68,0,3.28,0.16,4.81,0.48c1.53,0.33,2.87,0.78,4.02,1.39c1.15,0.6,2.05,1.37,2.69,2.28
	c0.66,0.93,0.98,1.99,0.98,3.2c0,2.58-1.05,4.44-3.16,5.61c-2.11,1.16-4.72,2.06-7.86,2.71c-3.14,0.64-6.52,1.29-10.16,1.93
	c-3.64,0.64-7.03,1.69-10.17,3.13c-3.14,1.45-5.75,3.58-7.86,6.4s-3.16,6.7-3.16,11.69c0,3.21,0.66,6.02,1.96,8.43
	c1.3,2.41,3,4.44,5.11,6.09c2.11,1.64,4.47,2.87,7.12,3.67c2.64,0.81,5.26,1.21,7.86,1.21c4.05,0,7.7-0.52,10.91-1.56
	c3.21-1.04,6.28-3.02,9.18-5.92c0.23,2.18,1.09,3.96,2.59,5.37c1.49,1.41,3.27,2.11,5.33,2.11c2.23,0,4.1-0.8,5.62-2.4
	c1.53-1.62,2.3-3.58,2.3-5.92V76.1z M771.34,105.39c0,1.62-0.45,3.03-1.32,4.29c-0.88,1.24-2.03,2.28-3.44,3.13
	c-1.42,0.84-3.02,1.49-4.81,1.93c-1.8,0.45-3.58,0.66-5.34,0.66c-2.06,0-3.81-0.23-5.22-0.71c-1.42-0.49-2.54-1.15-3.39-1.99
	c-0.84-0.84-1.43-1.79-1.78-2.83c-0.34-1.04-0.52-2.13-0.52-3.26c0-4.5,2.79-7.27,8.39-8.32c4.58-0.88,8.24-1.77,10.95-2.65
	c2.72-0.89,4.89-1.52,6.49-1.93V105.39z"/>
<path d="M164.35,87.2c0,2.25-0.33,4.84-0.97,7.78c-0.66,2.93-1.66,5.93-3.05,8.97c-1.38,3.06-3.12,6.06-5.22,8.99
	s-4.6,5.56-7.52,7.9c-2.91,2.33-6.23,4.21-9.98,5.6c-3.75,1.41-7.92,2.12-12.51,2.12c-6.89,0-12.92-1.37-18.09-4.1
	c-3.15-1.66-5.99-3.68-8.48-6.03c-0.01,0-0.01,0-0.01,0c-2.83-1.21-5.89-1.91-9.2-2.16c-3.06-0.23-6.21-1.28-9.01-2.6
	c-3.51-1.66-6.54-4.22-8.67-7.57c-1.15-1.82-0.5-3.08,1.62-3.48c0.66-0.12,1.35-0.14,2.01-0.14c4.26-0.05,8.02,1.57,11.49,3.82
	c1.59,1.03,3.15,2.11,4.71,3.22c-1.56-2.6-2.87-5.4-3.95-8.39c-3.48-4.19-7.58-7.68-12.59-10.14c-1.28-0.63-2.81-0.7-4.22-1.09
	c-2.31-0.62-4.65-1.14-6.86-1.98c-1.42-0.54-2.31-1.82-1.73-3.46c0.55-1.58,2.01-1.69,3.41-1.64c3.1,0.12,5.33,1.99,7.71,3.73
	c2.4,1.76,5.04,3.22,7.6,4.81c-4.33-9.11-9.07-17.75-18.83-22.06c-2.03,1.73-3.81,2.12-5.48,1.14c-1.98-1.18-2.91-3.48-2.31-5.76
	c0.59-2.24,2.31-3.75,4.43-3.88c2.3-0.15,3.91,1.44,4.59,4.46c0.13,0.61,0.25,1.43,0.67,1.75c2.25,1.68,4.6,3.22,6.98,4.85
	c-1.64-4.15-3.22-8.21-4.91-12.24c-0.19-0.46-0.93-0.78-1.49-1c-1.01-0.39-2.26-0.4-3.08-1.02c-2.1-1.56-2.54-5.14-1.14-7.26
	c1.39-2.12,4.29-2.92,6.4-1.77c2.32,1.27,3.68,4.73,2.27,7.08c-1.23,2.03-0.42,3.54,0.28,5.25c0.33,0.81,0.63,1.62,0.97,2.41
	c1.08,2.51,2.17,5.01,3.39,7.8c0.26-2.57,0.4-4.71,0.71-6.84c0.16-1.15-0.12-1.92-0.97-2.72c-2.06-1.92-2-4.92,0-6.92
	c2.05-2.06,4.98-2.13,6.96-0.18c2.09,2.05,2.23,5.24,0.12,7.1c-0.93,0.82-2.23,1.22-3.53,1.89c-0.82,5.44-1.11,11.16,1.37,16.39
	c2.16,4.51,4.58,8.88,7.02,13.26c-0.93-4.43-1.39-9-1.39-13.72c0-6.35,0.87-12.49,2.59-18.44c1.72-5.95,4.29-11.19,7.68-15.73
	c3.41-4.55,7.7-8.18,12.86-10.91c5.17-2.73,11.2-4.1,18.09-4.1c5.74,0,10.74,0.96,15.03,2.89c4.29,1.92,7.88,4.24,10.8,6.93
	c2.91,2.68,5.08,5.44,6.54,8.25c1.45,2.82,2.18,5.07,2.18,6.76c0,1.28-0.28,2.48-0.86,3.61c-0.57,1.12-1.32,2.1-2.24,2.89
	c-0.93,0.81-1.93,1.45-3.05,1.93c-1.11,0.48-2.2,0.73-3.27,0.73c-1.15,0-2.18-0.28-3.1-0.84c-0.91-0.56-1.64-1.41-2.18-2.53
	c-0.61-1.29-1.36-2.8-2.24-4.52c-0.88-1.73-2.07-3.34-3.56-4.83c-1.49-1.49-3.37-2.75-5.62-3.8c-2.26-1.04-5.07-1.57-8.43-1.57
	c-3.83,0-7.22,0.98-10.17,2.95c-2.94,1.97-5.44,4.52-7.46,7.66c-2.03,3.13-3.56,6.69-4.59,10.66c-1.03,3.98-1.55,7.98-1.55,12
	c0,4.1,0.52,8.14,1.55,12.11c1.03,3.98,2.57,7.53,4.59,10.67c2.03,3.13,4.52,5.68,7.46,7.65c2.95,1.98,6.34,2.95,10.17,2.95
	c4.51,0,8.26-0.77,11.25-2.34c2.99-1.57,5.35-3.4,7.12-5.48c1.76-2.1,2.98-4.16,3.67-6.21c0.69-2.05,1.03-3.56,1.03-4.52
	c0-1.45-0.49-2.3-1.49-2.53c-1-0.25-2.11-0.36-3.33-0.36h-10.57c-1.99,0-3.69-0.74-5.11-2.23c-1.42-1.49-2.12-3.28-2.12-5.37
	c0-2.1,0.7-3.88,2.12-5.37c1.42-1.49,3.12-2.24,5.11-2.24h23.89c2.67,0,4.63,1.03,5.85,3.08C163.75,81.24,164.35,83.91,164.35,87.2z
	"/>
<path d="M175.32,80.39c-1.34-1-2.01-2.83-2.01-5.49c0-2.57,0.61-4.94,1.84-7.11c1.22-2.17,2.98-4.04,5.28-5.61
	c2.3-1.57,5.09-2.79,8.38-3.68c3.29-0.88,7-1.33,11.14-1.33c3.9,0,7.5,0.36,10.79,1.08c3.29,0.72,6.14,1.85,8.55,3.38
	c2.41,1.53,4.29,3.44,5.63,5.73c1.34,2.29,2.01,5.04,2.01,8.26v43.03c0,2.33-0.77,4.3-2.3,5.91c-1.53,1.61-3.41,2.41-5.63,2.41
	c-2.07,0-3.85-0.7-5.34-2.11c-1.49-1.4-2.35-3.19-2.58-5.36c-2.91,2.89-5.97,4.86-9.18,5.91c-3.21,1.05-6.85,1.57-10.91,1.57
	c-2.6,0-5.22-0.4-7.86-1.21c-2.64-0.8-5.01-2.03-7.12-3.68c-2.11-1.65-3.81-3.68-5.11-6.09c-1.3-2.41-1.95-5.22-1.95-8.44
	c0-4.98,1.05-8.88,3.16-11.69c2.1-2.81,4.73-4.94,7.86-6.39c3.14-1.45,6.52-2.49,10.16-3.13c3.63-0.64,7.02-1.28,10.16-1.93
	c3.14-0.64,5.76-1.55,7.86-2.71c2.1-1.16,3.16-3.03,3.16-5.61c0-1.21-0.33-2.27-0.98-3.19c-0.65-0.92-1.55-1.69-2.7-2.29
	c-1.15-0.6-2.49-1.06-4.02-1.39c-1.53-0.32-3.14-0.48-4.82-0.48c-2.22,0-3.94,0.32-5.17,0.96c-1.22,0.65-2.2,1.45-2.93,2.41
	c-0.73,0.96-1.32,2.03-1.78,3.19c-0.46,1.17-1.02,2.23-1.67,3.19c-0.65,0.96-1.51,1.77-2.58,2.41c-1.07,0.64-2.6,0.96-4.59,0.96
	C178.25,81.9,176.66,81.4,175.32,80.39z M204.59,95.16c-2.72,0.89-6.37,1.77-10.96,2.65c-5.59,1.04-8.38,3.82-8.38,8.32
	c0,1.13,0.17,2.21,0.52,3.25c0.34,1.05,0.94,1.99,1.78,2.83c0.84,0.84,1.97,1.51,3.39,1.99c1.42,0.48,3.16,0.72,5.22,0.72
	c1.76,0,3.54-0.22,5.34-0.66c1.8-0.44,3.4-1.09,4.82-1.93c1.42-0.84,2.56-1.89,3.44-3.13c0.88-1.24,1.32-2.67,1.32-4.28V93.23
	C209.47,93.64,207.31,94.28,204.59,95.16z"/>
<path d="M259.44,57.19v1.57h8.15c1.45,0,2.7,0.54,3.73,1.63c1.03,1.09,1.55,2.39,1.55,3.92c0,1.61-0.52,2.93-1.55,3.98
	c-1.03,1.05-2.28,1.57-3.73,1.57h-8.15v48.46c0,2.33-0.82,4.36-2.47,6.09c-1.65,1.73-3.58,2.59-5.8,2.59c-2.3,0-4.27-0.86-5.91-2.59
	c-1.65-1.73-2.47-3.76-2.47-6.09V69.85h-4.82c-1.45,0-2.7-0.52-3.73-1.57c-1.03-1.04-1.55-2.37-1.55-3.98
	c0-1.53,0.52-2.83,1.55-3.92c1.03-1.08,2.28-1.63,3.73-1.63h4.82v-1.57v-13.5c0-2.41,0.82-4.46,2.47-6.15
	c1.65-1.69,3.62-2.53,5.91-2.53c2.22,0,4.15,0.84,5.8,2.53c1.65,1.69,2.47,3.74,2.47,6.15V57.19z"/>
<path d="M292.49,125.96c-4.06-1.73-7.58-4.16-10.56-7.29c-2.98-3.13-5.34-6.89-7.06-11.27c-1.72-4.38-2.58-9.22-2.58-14.53
	c0-5.3,0.86-10.14,2.58-14.53c1.72-4.38,4.08-8.14,7.06-11.27c2.99-3.13,6.5-5.56,10.56-7.29c4.06-1.73,8.38-2.59,12.97-2.59
	c4.67,0,9.03,0.86,13.09,2.59c4.06,1.73,7.58,4.16,10.56,7.29c2.98,3.13,5.34,6.89,7.06,11.27c1.72,4.38,2.58,9.22,2.58,14.53
	c0,5.3-0.86,10.15-2.58,14.53c-1.72,4.38-4.08,8.14-7.06,11.27c-2.99,3.13-6.51,5.57-10.56,7.29c-4.06,1.73-8.42,2.59-13.09,2.59
	C300.87,128.55,296.55,127.69,292.49,125.96z M322.34,84.13c-0.84-2.77-2.03-5.22-3.56-7.35c-1.53-2.13-3.43-3.82-5.68-5.06
	c-2.26-1.24-4.8-1.87-7.63-1.87c-2.83,0-5.36,0.62-7.58,1.87c-2.22,1.25-4.11,2.93-5.68,5.06c-1.57,2.13-2.77,4.58-3.62,7.35
	c-0.84,2.77-1.26,5.69-1.26,8.74c0,3.06,0.42,5.99,1.26,8.8c0.84,2.81,2.05,5.26,3.62,7.35c1.57,2.09,3.46,3.76,5.68,5
	c2.22,1.25,4.74,1.87,7.58,1.87c2.83,0,5.38-0.62,7.63-1.87c2.26-1.25,4.15-2.91,5.68-5c1.53-2.09,2.72-4.54,3.56-7.35
	c0.84-2.81,1.26-5.74,1.26-8.8C323.6,89.82,323.18,86.9,322.34,84.13z"/>
<path d="M396.48,114.75c-1.42,3.01-3.33,5.54-5.74,7.59c-2.41,2.05-5.24,3.6-8.5,4.64c-3.25,1.04-6.72,1.57-10.39,1.57
	c-4.67,0-8.8-0.7-12.4-2.11c-3.6-1.4-6.62-3.15-9.07-5.24c-2.45-2.09-4.31-4.4-5.57-6.93c-1.26-2.53-1.89-4.88-1.89-7.05
	c0-1.85,0.82-3.33,2.47-4.46c1.65-1.12,3.43-1.69,5.34-1.69c1.3,0,2.49,0.28,3.56,0.84c1.07,0.56,1.84,1.45,2.29,2.65
	c1.3,3.38,3.18,6.11,5.63,8.2c2.45,2.09,5.66,3.13,9.64,3.13c1.3,0,2.6-0.18,3.9-0.54c1.3-0.36,2.47-0.88,3.5-1.57
	c1.03-0.68,1.88-1.53,2.53-2.53c0.65-1,0.98-2.19,0.98-3.56c0-2.17-0.96-3.86-2.87-5.06c-1.91-1.2-4.29-2.23-7.12-3.07
	c-2.83-0.84-5.93-1.69-9.3-2.53c-3.37-0.84-6.47-1.99-9.3-3.44c-2.83-1.45-5.21-3.33-7.12-5.67c-1.91-2.33-2.87-5.46-2.87-9.4
	c0-3.13,0.61-6.03,1.84-8.68c1.22-2.65,2.97-4.9,5.22-6.75c2.26-1.85,4.95-3.29,8.09-4.34c3.14-1.04,6.62-1.57,10.45-1.57
	c3.9,0,7.46,0.58,10.68,1.75c3.21,1.17,5.95,2.59,8.21,4.28c2.26,1.69,4.02,3.52,5.28,5.49c1.26,1.97,1.89,3.8,1.89,5.48
	c0,1.05-0.23,2.01-0.69,2.89c-0.46,0.89-1.05,1.63-1.78,2.23c-0.73,0.6-1.53,1.09-2.41,1.45c-0.88,0.36-1.74,0.54-2.58,0.54
	c-0.92,0-1.8-0.22-2.64-0.66c-0.84-0.44-1.46-1.22-1.84-2.35c-0.61-1.53-1.43-2.81-2.47-3.86c-1.03-1.04-2.18-1.91-3.44-2.59
	c-1.26-0.68-2.6-1.18-4.02-1.51c-1.42-0.32-2.81-0.48-4.19-0.48c-2.98,0-5.47,0.54-7.46,1.63c-1.99,1.09-2.98,2.79-2.98,5.12
	c0,1.93,0.98,3.42,2.93,4.46c1.95,1.05,4.38,1.95,7.29,2.71c2.91,0.76,6.04,1.57,9.42,2.41c3.37,0.84,6.5,1.97,9.41,3.38
	c2.91,1.41,5.34,3.25,7.29,5.54s2.93,5.32,2.93,9.1C398.6,108.22,397.89,111.74,396.48,114.75z"/>
<g>
	<path d="M435.18,113.95c-0.64,0.46-1.3,0.83-1.99,1.12c-0.69,0.29-1.45,0.49-2.29,0.6c-0.84,0.11-1.8,0.17-2.89,0.17
		c-1.78,0-3.46-0.4-5.04-1.2c-1.58-0.8-2.96-1.93-4.14-3.4c-1.18-1.47-2.12-3.21-2.8-5.23c-0.69-2.02-1.03-4.25-1.03-6.69
		c0-2.44,0.31-4.68,0.93-6.72c0.62-2.04,1.5-3.79,2.64-5.26c1.14-1.47,2.51-2.6,4.11-3.4c1.6-0.8,3.38-1.2,5.34-1.2
		c1.49,0,2.78,0.19,3.87,0.57c1.09,0.38,2,0.83,2.72,1.34c0.73,0.51,1.3,1.02,1.72,1.52c0.42,0.5,0.72,0.86,0.9,1.09V73.7
		c0-0.84,0.27-1.54,0.82-2.12c0.54-0.57,1.22-0.86,2.01-0.86c0.8,0,1.48,0.29,2.04,0.86c0.56,0.57,0.84,1.28,0.84,2.12v39.11
		c0,0.84-0.28,1.55-0.84,2.14c-0.56,0.59-1.24,0.89-2.04,0.89c-0.8,0-1.47-0.29-2.01-0.89c-0.54-0.59-0.82-1.3-0.82-2.14v-0.51
		C436.49,112.95,435.81,113.5,435.18,113.95z M420.91,103.66c0.38,1.41,0.94,2.65,1.69,3.72c0.74,1.07,1.64,1.93,2.7,2.57
		c1.05,0.65,2.27,0.97,3.65,0.97c1.38,0,2.6-0.32,3.68-0.97c1.07-0.65,1.97-1.51,2.7-2.57c0.73-1.07,1.28-2.31,1.66-3.72
		c0.38-1.41,0.57-2.86,0.57-4.35c0-1.52-0.19-2.98-0.57-4.37c-0.38-1.39-0.94-2.63-1.66-3.72c-0.73-1.09-1.63-1.95-2.7-2.6
		c-1.07-0.65-2.3-0.97-3.68-0.97c-1.38,0-2.6,0.32-3.65,0.97c-1.05,0.65-1.95,1.51-2.7,2.6c-0.74,1.09-1.31,2.33-1.69,3.72
		c-0.38,1.39-0.57,2.85-0.57,4.37C420.34,100.8,420.53,102.25,420.91,103.66z"/>
	<path d="M452.77,92.54c-0.38,0.21-0.77,0.31-1.17,0.31c-0.73,0-1.4-0.25-2.02-0.74c-0.62-0.49-0.93-1.18-0.93-2.06
		c0-0.34,0.09-0.76,0.27-1.26c0.33-0.8,0.76-1.59,1.31-2.37c0.54-0.78,1.28-1.48,2.21-2.09c0.93-0.61,2.07-1.1,3.43-1.46
		c1.36-0.36,3.02-0.54,4.98-0.54c3.7,0,6.65,0.77,8.85,2.32c2.2,1.54,3.29,3.82,3.29,6.83v21.33c0,0.84-0.27,1.55-0.82,2.14
		c-0.54,0.59-1.22,0.89-2.01,0.89c-0.8,0-1.48-0.29-2.04-0.89c-0.56-0.59-0.84-1.3-0.84-2.14v-0.92c-1.38,1.56-2.95,2.61-4.71,3.14
		c-1.76,0.53-3.62,0.8-5.58,0.8c-1.23,0-2.48-0.18-3.73-0.54c-1.25-0.36-2.38-0.92-3.38-1.69c-1-0.76-1.81-1.71-2.42-2.86
		c-0.62-1.14-0.93-2.52-0.93-4.12c0-1.83,0.34-3.36,1.03-4.6c0.69-1.24,1.62-2.26,2.78-3.06c1.16-0.8,2.5-1.41,4-1.83
		c1.51-0.42,3.09-0.72,4.77-0.92c1.92-0.23,3.43-0.49,4.52-0.77s1.91-0.62,2.45-1c0.54-0.38,0.88-0.82,1.01-1.31
		c0.13-0.5,0.19-1.05,0.19-1.66c0-0.72-0.2-1.35-0.6-1.89c-0.4-0.53-0.91-0.97-1.53-1.31c-0.62-0.34-1.31-0.6-2.07-0.77
		c-0.76-0.17-1.51-0.26-2.23-0.26c-1.31,0-2.36,0.11-3.16,0.34c-0.8,0.23-1.45,0.53-1.96,0.92c-0.51,0.38-0.92,0.84-1.23,1.37
		c-0.31,0.53-0.59,1.09-0.84,1.66C453.45,92,453.15,92.33,452.77,92.54z M465.92,99.83c-0.69,0.23-1.5,0.4-2.42,0.51
		c-0.93,0.11-1.89,0.25-2.89,0.4c-1,0.15-1.97,0.34-2.91,0.57c-0.94,0.23-1.8,0.56-2.56,1c-0.76,0.44-1.37,1-1.82,1.69
		c-0.45,0.69-0.68,1.56-0.68,2.63c0,0.84,0.17,1.53,0.52,2.09c0.34,0.55,0.79,0.99,1.33,1.32c0.54,0.32,1.16,0.55,1.85,0.69
		c0.69,0.13,1.38,0.2,2.07,0.2c1.05,0,2.11-0.12,3.16-0.37c1.05-0.25,2.01-0.66,2.86-1.23c0.85-0.57,1.54-1.33,2.07-2.29
		c0.53-0.95,0.79-2.13,0.79-3.55v-4.06L465.92,99.83z"/>
</g>
<path d="M540.16,60.19c3.1,1.69,5.76,4.08,7.98,7.17c2.22,3.09,3.92,6.79,5.11,11.09c1.19,4.3,1.78,9.02,1.78,14.16
	c0,5.14-0.59,9.85-1.78,14.1c-1.19,4.26-2.89,7.94-5.11,11.03c-2.22,3.09-4.88,5.48-7.98,7.17c-3.1,1.69-6.53,2.53-10.27,2.53
	c-2.83,0-5.32-0.44-7.46-1.33c-2.14-0.88-3.96-1.87-5.45-2.95c-1.49-1.08-2.7-2.07-3.62-2.95c-0.92-0.88-1.61-1.33-2.07-1.33
	c-0.38,0-0.57,0.52-0.57,1.57v23.63c0,2.41-0.82,4.48-2.47,6.21c-1.65,1.73-3.62,2.59-5.91,2.59c-2.22,0-4.15-0.86-5.8-2.59
	c-1.65-1.73-2.47-3.8-2.47-6.21V66.34c0-2.33,0.82-4.36,2.47-6.09c1.64-1.73,3.58-2.59,5.8-2.59c2.3,0,4.27,0.86,5.91,2.59
	c1.65,1.73,2.47,3.76,2.47,6.09c0.69-0.96,1.51-1.97,2.47-3.01c0.96-1.04,2.18-1.99,3.67-2.83c1.49-0.84,3.29-1.52,5.4-2.05
	c2.1-0.52,4.65-0.78,7.63-0.78C533.63,57.66,537.06,58.5,540.16,60.19z M535.85,77.43c-2.68-3.7-6.47-5.54-11.37-5.54
	c-4.82,0-8.57,1.85-11.25,5.54c-2.68,3.7-4.02,8.76-4.02,15.19c0,6.35,1.34,11.37,4.02,15.07c2.68,3.7,6.43,5.54,11.25,5.54
	c4.9,0,8.69-1.85,11.37-5.54c2.68-3.7,4.02-8.72,4.02-15.07C539.87,86.18,538.53,81.12,535.85,77.43z"/>
<path d="M583.21,78.09c-1.34,1.41-2.35,2.89-3.04,4.46c-0.69,1.57-1.15,3.16-1.38,4.76c-0.23,1.61-0.34,3.09-0.34,4.46v27
	c0,2.41-0.82,4.46-2.47,6.15c-1.65,1.69-3.62,2.53-5.91,2.53c-2.22,0-4.15-0.86-5.8-2.59c-1.65-1.73-2.47-3.76-2.47-6.09V66.34
	c0-2.33,0.82-4.36,2.47-6.09c1.64-1.73,3.62-2.59,5.91-2.59s4.25,0.86,5.85,2.59c1.61,1.73,2.41,3.76,2.41,6.09
	c0.69-0.8,1.55-1.73,2.58-2.77c1.03-1.04,2.18-1.99,3.44-2.83c1.26-0.84,2.58-1.57,3.96-2.17c1.38-0.6,2.76-0.9,4.13-0.9
	c3.06,0,5.15,0.84,6.26,2.53c1.11,1.69,1.67,3.66,1.67,5.91c0,1.85-0.4,3.24-1.21,4.16c-0.8,0.93-1.8,1.63-2.98,2.11
	c-1.19,0.48-2.47,0.86-3.85,1.15c-1.38,0.28-2.68,0.66-3.9,1.15C586.33,75.54,584.55,76.68,583.21,78.09z"/>
<path d="M606.78,80.86c-1.34-1-2.01-2.83-2.01-5.49c0-2.57,0.61-4.94,1.84-7.11c1.22-2.17,2.98-4.04,5.28-5.61
	c2.3-1.57,5.09-2.79,8.38-3.68c3.29-0.88,7-1.33,11.14-1.33c3.9,0,7.5,0.36,10.79,1.08c3.29,0.72,6.14,1.85,8.55,3.38
	c2.41,1.53,4.29,3.44,5.63,5.73c1.34,2.29,2.01,5.04,2.01,8.26v43.03c0,2.33-0.77,4.3-2.3,5.91c-1.53,1.61-3.41,2.41-5.63,2.41
	c-2.07,0-3.85-0.7-5.34-2.11c-1.49-1.4-2.35-3.19-2.58-5.36c-2.91,2.89-5.97,4.86-9.18,5.91c-3.21,1.05-6.85,1.57-10.91,1.57
	c-2.6,0-5.22-0.4-7.86-1.21c-2.64-0.8-5.01-2.03-7.12-3.68c-2.11-1.65-3.81-3.68-5.11-6.09c-1.3-2.41-1.95-5.22-1.95-8.44
	c0-4.98,1.05-8.88,3.16-11.69c2.1-2.81,4.73-4.94,7.86-6.39c3.14-1.45,6.52-2.49,10.16-3.13c3.63-0.64,7.02-1.28,10.16-1.93
	c3.14-0.64,5.76-1.55,7.86-2.71c2.1-1.16,3.16-3.03,3.16-5.61c0-1.21-0.33-2.27-0.98-3.19c-0.65-0.92-1.55-1.69-2.7-2.29
	s-2.49-1.06-4.02-1.39c-1.53-0.32-3.14-0.48-4.82-0.48c-2.22,0-3.94,0.32-5.17,0.96c-1.22,0.65-2.2,1.45-2.93,2.41
	c-0.73,0.96-1.32,2.03-1.78,3.19c-0.46,1.17-1.02,2.23-1.67,3.19c-0.65,0.96-1.51,1.77-2.58,2.41c-1.07,0.64-2.6,0.96-4.59,0.96
	C609.7,82.37,608.11,81.87,606.78,80.86z M636.05,95.63c-2.72,0.89-6.37,1.77-10.96,2.65c-5.59,1.04-8.38,3.82-8.38,8.32
	c0,1.13,0.17,2.21,0.52,3.25c0.34,1.05,0.94,1.99,1.78,2.83c0.84,0.84,1.97,1.51,3.39,1.99c1.42,0.48,3.16,0.72,5.22,0.72
	c1.76,0,3.54-0.22,5.34-0.66c1.8-0.44,3.4-1.09,4.82-1.93c1.42-0.84,2.56-1.89,3.44-3.13c0.88-1.24,1.32-2.67,1.32-4.28V93.7
	C640.93,94.1,638.77,94.74,636.05,95.63z"/>
<path d="M701.43,135.29c0,1.61-0.19,3.25-0.57,4.94c-0.38,1.69-1.09,3.23-2.12,4.64c-1.03,1.4-2.43,2.55-4.19,3.44
	c-1.76,0.88-4.02,1.33-6.77,1.33H681c-1.3,0-2.39-0.46-3.27-1.39c-0.88-0.92-1.32-2.07-1.32-3.44c0-1.37,0.44-2.49,1.32-3.37
	c0.88-0.89,1.97-1.33,3.27-1.33h6.77c0.99,0,2.01-0.36,3.04-1.09c1.03-0.72,1.55-1.97,1.55-3.74v-6.51
	c-3.52-0.48-6.91-1.59-10.16-3.32c-3.25-1.73-6.14-4.08-8.67-7.05c-2.53-2.97-4.55-6.55-6.08-10.73c-1.53-4.18-2.3-8.96-2.3-14.34
	c0-5.38,0.8-10.26,2.41-14.65c1.61-4.38,3.83-8.14,6.66-11.27c2.83-3.13,6.18-5.54,10.04-7.23c3.86-1.69,8.05-2.53,12.57-2.53
	c5.13,0,9.47,0.92,13.03,2.77c3.56,1.85,6.43,3.96,8.61,6.33c2.18,2.37,3.75,4.64,4.71,6.81c0.96,2.17,1.44,3.62,1.44,4.34
	c0,1.21-0.31,2.35-0.92,3.44c-0.61,1.08-1.38,2.03-2.3,2.83c-0.92,0.8-1.93,1.45-3.04,1.93c-1.11,0.48-2.16,0.72-3.16,0.72
	c-1.07,0-2.07-0.3-2.98-0.9c-0.92-0.6-1.53-1.63-1.84-3.07c-0.23-1.04-0.65-2.19-1.26-3.44c-0.61-1.24-1.46-2.43-2.53-3.56
	c-1.07-1.12-2.43-2.07-4.08-2.83c-1.65-0.76-3.54-1.15-5.68-1.15c-4.75,0-8.46,1.73-11.14,5.18c-2.68,3.46-4.02,8.88-4.02,16.27
	c0,7.39,1.34,12.82,4.02,16.27c2.68,3.46,6.39,5.18,11.14,5.18c2.14,0,4.02-0.38,5.63-1.15c1.61-0.76,2.97-1.71,4.08-2.83
	c1.11-1.12,1.97-2.31,2.58-3.56c0.61-1.25,1.03-2.39,1.26-3.44c0.38-1.45,1.01-2.47,1.89-3.07c0.88-0.6,1.85-0.9,2.93-0.9
	c0.99,0,2.05,0.24,3.16,0.72c1.11,0.48,2.12,1.13,3.04,1.93c0.92,0.81,1.68,1.75,2.3,2.83c0.61,1.08,0.92,2.23,0.92,3.44
	c0,1.04-0.52,2.61-1.55,4.7c-1.03,2.09-2.55,4.22-4.53,6.39c-1.99,2.17-4.42,4.12-7.29,5.85c-2.87,1.73-6.14,2.75-9.82,3.07V135.29z
	"/>
</svg>
