<?xml version="1.0" encoding="utf-8"?>
<!-- Generator: Adobe Illustrator 28.1.0, SVG Export Plug-In . SVG Version: 6.00 Build 0)  -->
<svg version="1.1" id="Camada_1" xmlns="http://www.w3.org/2000/svg" xmlns:xlink="http://www.w3.org/1999/xlink" x="0px" y="0px"
	 viewBox="0 0 1000 1000" style="enable-background:new 0 0 1000 1000;" xml:space="preserve">
<g>
	<g>
		<path d="M622.3,561.2c-15.4-23.1-32.1-45.6-47.9-66.7c-12.3-16.4-25-26.2-39.8-30.8c-40.8-12.6-74.6-1.7-100.4,32.5
			c-16,21.1-31.1,42.3-44.9,62.8c-5.8,8.6-10.8,18.8-14.4,29.6c-7.2,21.3-4.8,43.2,6.5,59.9c11.2,16.5,30.2,26.8,52.2,28
			c9,0.5,131.6,0.3,147.2-0.4c25.7-1.2,44.9-15.6,54.1-40.5C643.7,611.5,639.6,587.2,622.3,561.2z M604.1,637.2
			c-6.6,7.9-16.7,12.6-29.2,13.6c-3.1,0.2-6.2,0.2-9.5,0.1c-1.6,0-3.2-0.1-4.8-0.1h-5.5l0,0.1c-0.8-0.1-1.7-0.2-2.5-0.3
			c-6.4-0.8-77.1-0.4-87.5-0.3c-2.5,0-5,0.1-7.5,0.1c-9.9,0.2-20.2,0.4-29.5-1.4c-11.1-2.1-20.1-8.2-25.6-16.9
			c-5.7-9.2-7-20.7-3.7-32.4c1.8-6.3,4.1-13.5,8-19l1.4-2c17.1-24.4,34.8-49.7,53.5-73.4c14.2-18,34.3-24.5,56.6-18.3
			c11.3,3.2,21.9,9.4,27.5,16.4c19.8,24.5,37.9,50,58.8,80.7c3.8,5.5,6.4,13.8,7.3,23.2C613.2,619.2,610.5,629.5,604.1,637.2z"/>
		<path d="M481.6,683.6c-24.7,0-45.1-0.1-48.5-0.3c-24.1-1.4-45.1-12.6-57.5-31c-12.5-18.6-15.2-42.6-7.3-65.9
			c3.8-11.3,9.1-22.1,15.2-31.2c13.9-20.6,29.1-41.8,45.1-63.1c27.7-36.7,64-48.5,107.9-34.9c16.3,5,30,15.6,43.2,33.2
			c15.8,21.1,32.6,43.7,48.2,67l0,0c18.6,28,23,54.3,13.3,80.5c-10.2,27.6-31.6,43.6-60.2,45C570.9,683.4,520.8,683.6,481.6,683.6z
			 M502.9,465.5c-24.9,0-45.7,11.6-63.4,34.9c-15.9,21-30.9,42.1-44.7,62.5c-5.5,8.1-10.2,17.8-13.6,28c-6.5,19.3-4.4,38.9,5.7,53.9
			c10,14.8,27.1,23.9,46.9,25c8.3,0.5,131.2,0.3,146.5-0.4c23.1-1.1,39.8-13.6,48.1-36.1c8.1-21.8,4.2-44.1-11.8-68.1
			c-15.3-23-32-45.4-47.7-66.4c-11.4-15.2-22.9-24.2-36.3-28.3C522.1,467.1,512.2,465.5,502.9,465.5z M561.4,658.4l-9.6-1
			c-5.2-0.6-67.5-0.4-86.6-0.2c-2.5,0-5,0.1-7.4,0.1c-10.3,0.2-20.9,0.4-31-1.5c-13-2.5-23.6-9.6-30.1-20.1
			c-6.7-10.9-8.3-24.3-4.4-37.8c1.9-6.8,4.5-14.7,9-21l1.4-2c17.2-24.5,34.9-49.8,53.8-73.7c16-20.3,38.7-27.6,63.8-20.6
			c12.8,3.6,24.4,10.6,31,18.7c20,24.6,38.1,50.3,59.2,81.2c4.4,6.4,7.4,15.8,8.5,26.4c1.4,13.6-1.9,25.7-9.5,34.8
			c-7.8,9.4-19.5,14.9-33.9,16c-3.4,0.3-6.7,0.2-10.2,0.1c-1.3,0-2.5,0-3.8-0.1L561.4,658.4z M555.1,643.9h5.5c1.6,0,3.3,0,4.9,0.1
			c3.2,0.1,6.1,0.1,8.9-0.1c10.6-0.8,19-4.7,24.5-11.1l0,0c5.2-6.2,7.4-14.7,6.4-24.6c-0.8-8.2-3.1-15.5-6.2-20
			c-20.9-30.7-38.8-56-58.5-80.3c-4.7-5.8-14.1-11.3-24-14.1c-19.7-5.5-36.8,0-49.4,15.9c-18.6,23.6-36.2,48.7-53.3,73.1l-1.4,2
			c-3.3,4.7-5.4,11.2-7,16.9c-2.8,9.8-1.8,19.4,2.9,26.9c4.4,7.1,11.9,12,21,13.8c8.7,1.7,18.5,1.5,28.1,1.3
			c2.5-0.1,5.1-0.1,7.6-0.1c0.8,0,80.8-0.6,88.3,0.3l1.1,0.1L555.1,643.9z"/>
	</g>
	<g>
		<path d="M454.4,310.1c-11.7-7.5-24.5-10.4-36.6-7.3c-12.3,3.2-22.6,12-29,24.7c-13.1,26.1-6.9,62,14.5,83.5
			c10.9,11,24,16.7,37,16.4c3.2-0.1,6.4-0.5,9.6-1.3c15.8-4.1,28-16.9,33.1-35.4C487.8,373.3,484.6,329.5,454.4,310.1z M460.9,373.1
			c-0.2,1,1.2,27.1-18,29c-6.6,0.6-14-1.2-20.5-7.1c-13.3-12.1-19.1-35.7-13-52.7c2.9-7.9,8-13.3,14.4-15c1.4-0.4,2.8-0.6,4.2-0.6
			c5.2-0.1,10.5,2,15.5,6.2C454.1,341.6,459.3,353.7,460.9,373.1z"/>
		<path d="M439.4,434.2c-14.5,0-29-6.5-40.9-18.4c-23.4-23.5-30.2-62.7-15.8-91.4c7.3-14.5,19.2-24.6,33.4-28.3
			c13.5-3.5,28.5-0.6,42,8.2l0,0c32.9,21.3,36.8,68.7,31.4,88.1c-5.7,20.7-19.5,35.4-37.9,40.2c-3.7,1-7.4,1.5-11.2,1.6
			C440.1,434.2,439.8,434.2,439.4,434.2z M427.8,308.3c-2.8,0-5.5,0.3-8.2,1c-10.4,2.7-19.1,10.2-24.7,21.2
			c-11.8,23.6-6.1,56.1,13.3,75.6c9.5,9.5,21,14.7,32,14.4c2.7-0.1,5.4-0.4,8-1.1c13.6-3.5,23.8-14.6,28.2-30.5
			c3.9-14.1,2-55.2-25.7-73C443.1,310.9,435.3,308.3,427.8,308.3z M440.4,409c-8.2,0-16.2-3.1-22.6-9c-15.4-14-21.9-40.4-14.8-60.1
			c3.6-10.1,10.4-17,19-19.3c1.9-0.5,3.8-0.8,5.8-0.8c6.9-0.1,13.8,2.5,20.1,7.8c12,10,18.1,23.9,19.8,45l0.1,1l-0.1,0.5
			c-0.6,29.3-17.1,34.1-24.1,34.8C442.5,408.9,441.4,409,440.4,409z M428.4,333.4c-0.1,0-0.2,0-0.3,0c-0.9,0-1.7,0.1-2.5,0.4
			c-4.2,1.1-7.7,5-9.7,10.7c-5.2,14.4-0.1,35.2,11.1,45.4c5.6,5.1,11.4,5.7,15.3,5.4c7.5-0.7,11.5-8,11.8-21.5c0-0.2,0-0.4,0-0.6
			c-1.4-17.1-5.9-27.7-14.9-35.2C435.5,335,431.8,333.4,428.4,333.4z"/>
	</g>
	<g>
		<path d="M330.1,412.6c-13.6-2.8-26.6-0.8-36.8,6.5c-10.3,7.4-16.7,19.4-18.1,33.6c-2.7,29.1,16.1,60.2,43.9,72.5
			c14.2,6.3,28.5,6.8,40.4,1.8c3-1.2,5.8-2.8,8.5-4.7c13.2-9.6,20-26,18-44.9C384,459.4,365.2,419.8,330.1,412.6z M358.9,468.9
			c0.2,1,10.9,24.9-6.2,33.5c-6,3-13.5,4-21.7,0.8c-16.7-6.4-30.8-26.4-31.2-44.4c-0.2-8.4,2.6-15.3,8-19.2c1.1-0.8,2.4-1.5,3.7-2.1
			c4.8-2,10.6-2,16.7,0.1C341.2,442.1,350.4,451.4,358.9,468.9z"/>
		<path d="M342.3,537.2c-8.5,0-17.3-1.9-26-5.8C286,518,265.4,483.9,268.4,452c1.5-16.2,8.9-29.9,20.9-38.5
			c11.3-8.2,26.3-10.9,42.1-7.7c38.4,7.9,59.2,50.6,61.3,70.7c2.2,21.4-5.3,40.1-20.8,51.2c-3.1,2.2-6.4,4.1-9.8,5.5
			C355.9,535.9,349.2,537.2,342.3,537.2z M318.5,418.2c-8.1,0-15.2,2.2-21.2,6.4c-8.7,6.3-14.1,16.5-15.3,28.7
			c-2.5,26.3,14.6,54.5,39.8,65.6c12.3,5.4,24.8,6.1,35.1,1.8c2.5-1,4.9-2.4,7.1-4c11.4-8.2,16.9-22.3,15.2-38.7
			c-1.5-14.6-18.2-52.1-50.4-58.7l0,0C325.2,418.5,321.7,418.2,318.5,418.2z M341.1,512.1c-4.2,0-8.4-0.8-12.6-2.4
			c-19.4-7.4-35.1-29.7-35.6-50.6c-0.3-10.7,3.5-19.6,10.7-24.9c1.6-1.2,3.3-2.1,5.1-2.9c6.4-2.6,13.8-2.7,21.5-0.1
			c14.8,5,25.6,15.7,34.8,34.8l0.5,1.4c10.1,27.6-3.5,38-9.8,41.2C351.2,510.9,346.2,512.1,341.1,512.1z M319.1,442.9
			c-1.9,0-3.6,0.3-5.1,0.9c-0.8,0.3-1.5,0.8-2.2,1.3c-3.5,2.6-5.4,7.4-5.2,13.5c0.4,15.3,12.7,32.8,26.9,38.2
			c7.1,2.7,12.7,1.2,16.2-0.5c6.8-3.4,7.8-11.6,3.2-24.3c-0.1-0.2-0.1-0.4-0.2-0.6c-7.6-15.4-15.6-23.6-26.7-27.4
			C323.5,443.3,321.2,442.9,319.1,442.9z"/>
	</g>
	<g>
		<path d="M626,332.3c-5.3-12.9-14.2-22.5-25.9-26.9c-11.9-4.4-25.4-3.1-38,3.7c-25.7,13.9-41,47-35.7,76.8
			c2.7,15.3,10.2,27.4,21,34.6c2.7,1.8,5.6,3.2,8.6,4.4c15.3,5.7,32.7,2.1,47.3-10.1C617.2,403.2,639.6,365.4,626,332.3z
			 M595.3,387.7c-0.7,0.7-14.5,22.9-31.3,13.5c-5.8-3.3-10.8-9-12.8-17.6c-4-17.5,4.7-40.2,19.5-50.7c6.9-4.9,14.1-6.3,20.4-4.1
			c1.3,0.5,2.6,1.1,3.8,1.9c4.3,2.8,7.5,7.7,9.2,13.9C607.7,357.9,605.1,370.9,595.3,387.7z"/>
		<path d="M570.9,434.4c-5.8,0-11.6-1-17.1-3.1c-3.5-1.3-6.9-3-10.1-5.1c-12.4-8.2-21-22.1-24-39.1c-5.8-32.6,11.1-68.7,39.2-84
			c14.3-7.8,29.8-9.2,43.6-4.1c13.1,4.9,23.7,15.8,29.9,30.7l0,0c14.9,36.3-9,77.4-24.5,90.3C596.4,429.5,583.6,434.4,570.9,434.4z
			 M585.6,309.6c-6.7,0-13.6,1.8-20.2,5.4c-23.2,12.6-37.1,42.5-32.3,69.6c2.4,13.2,8.8,23.9,18.1,30.1c2.3,1.5,4.7,2.7,7.2,3.7
			c13.1,4.9,27.9,1.6,40.6-9c11.2-9.4,33.1-44.2,20.6-74.6c-4.7-11.5-12.3-19.5-21.9-23.1C593.9,310.4,589.8,309.6,585.6,309.6z
			 M572.5,410.3c-5.2,0-9.3-1.7-11.8-3.1c-8.2-4.6-13.9-12.4-16.1-22c-4.6-20.3,5.1-45.7,22.2-57.8c8.8-6.2,18.2-8,26.7-5
			c1.8,0.7,3.6,1.5,5.2,2.6c5.7,3.8,9.9,10,12.1,17.8c4.1,15.1,1.2,30-9.4,48.3l-0.9,1.3C590,406.5,580.1,410.3,572.5,410.3z
			 M585.1,334.6c-3.3,0-6.9,1.3-10.4,3.9c-12.5,8.9-20.1,28.8-16.8,43.6c1.7,7.4,6.1,11.2,9.5,13.1c8.2,4.6,16.5-3.4,21.9-10.9
			c0.1-0.2,0.2-0.3,0.4-0.5c8.6-14.9,10.9-26.1,7.8-37.4c-1.3-4.6-3.5-8.1-6.4-10c-0.7-0.5-1.5-0.9-2.3-1.2
			C587.6,334.8,586.3,334.6,585.1,334.6z"/>
	</g>
	<g>
		<path d="M732.8,464.4c-0.8-13.9-6-25.9-15.7-33.9c-9.8-8.1-23-11.2-37.1-8.9c-28.8,4.8-54.1,31-58.8,61
			c-2.4,15.3,0.7,29.3,8.6,39.6c2,2.6,4.2,4.9,6.7,7c12.6,10.3,30.2,12.6,48,5.8C701.4,528.6,734.9,500.2,732.8,464.4z M685.7,506.7
			c-0.9,0.4-21.2,16.9-34,2.6c-4.4-5-7.3-12-6.4-20.8c1.9-17.8,17.6-36.5,34.9-41.6c8.1-2.4,15.4-1.4,20.6,2.8
			c1.1,0.9,2.1,1.9,2.9,3c3.1,4.1,4.6,9.7,4.2,16.2C707.1,482.7,700.4,494,685.7,506.7z"/>
		<path d="M664.4,545.7c-11.9,0-23.1-3.8-32.2-11.3c-2.9-2.4-5.6-5.1-7.8-8.1c-9.1-11.8-12.6-27.8-9.9-44.8
			c5.2-32.7,32.9-61.4,64.5-66.6c16-2.7,31.2,1,42.6,10.3c10.8,8.9,17.3,22.6,18.2,38.8l0,0c2.2,39.2-33.8,70.2-52.6,77.4
			C679.4,544.3,671.7,545.7,664.4,545.7z M688.9,427.7c-2.5,0-5.2,0.2-7.8,0.7c-26.1,4.3-48.9,28.1-53.2,55.3
			c-2.1,13.3,0.5,25.5,7.3,34.3c1.6,2.1,3.5,4.1,5.6,5.8c10.8,8.9,25.9,10.6,41.3,4.7c13.7-5.2,45.7-31,43.9-63.8
			c-0.7-12.4-5.3-22.5-13.2-29C706.3,430.5,698,427.7,688.9,427.7z M664.7,522c-9.4,0-15.3-5-18.1-8.1c-6.3-7-9.1-16.3-8.1-26.1
			c2.2-20.7,19.7-41.5,39.8-47.4c10.3-3,19.8-1.6,26.8,4c1.5,1.2,2.9,2.6,4.1,4.2c4.2,5.5,6.1,12.6,5.6,20.8
			c-1,15.6-8.6,28.7-24.7,42.6l-1.3,0.9C679.2,519.7,671.1,522,664.7,522z M688.6,452.5c-2,0-4.1,0.3-6.4,1
			c-14.7,4.3-28.5,20.7-30.1,35.8c-0.8,7.6,2.1,12.6,4.7,15.5c5,5.7,13.2,4.6,24.3-3.2c0.2-0.1,0.3-0.2,0.5-0.3
			c13-11.3,18.8-21.1,19.6-32.8c0.3-4.8-0.7-8.8-2.8-11.6c-0.5-0.7-1.1-1.3-1.8-1.8C694.5,453.4,691.8,452.5,688.6,452.5z"/>
	</g>
</g>
<g>
	<path d="M837.5,419.3c-1.2-5.9-2.6-11.6-4.2-17.4c0-0.1,0-0.3-0.1-0.4c-4.6-17.3-10.4-34-17.4-50c-0.7-1.6-1.4-3.1-2.1-4.7
		c-0.7-1.6-1.5-3.3-2.3-4.9c-0.4-0.8-0.8-1.6-1.2-2.4C756.7,228.3,647.1,152.1,521,144.9c-3.9-0.2-7.9-0.4-11.8-0.5
		c-2.6-0.1-5.3-0.1-7.9-0.1H500c-2,0-4.1,0-6.1,0.1c-2,0-4.1,0.1-6.1,0.2c-120.1,4.7-228.1,71.8-286.8,176c-1,1.8-2,3.5-2.9,5.3
		c-0.9,1.8-1.9,3.6-2.8,5.4c-0.9,1.8-1.9,3.6-2.8,5.5c-0.8,1.6-1.6,3.2-2.4,4.9c-0.5,1-1,2.1-1.5,3.2c-1.1,2.2-2.1,4.5-3.1,6.8
		c-6.9,16-12.8,32.6-17.3,49.8c-1.6,5.9-3,11.8-4.3,17.8c-5.2,24.3-7.5,48.6-7.2,72.6v1.9c0.1,2.4,0.6,5,0.7,7.3
		c1.8,32.1,7,62.2,15.4,90.4c0.1,0.3,0.2,0.6,0.3,0.8c18.7,57.5,52.3,109.5,96.9,150.2c0.2,0.2,0.5,0.5,0.7,0.7
		c7.1,6.2,14.5,12.3,22.3,18.1c11.6,8.8,24.1,17.1,37.2,25c10,6,13.5,12.6,13.1,23.8c-0.7,22.2,0,44.4-0.2,66.6
		c-0.1,13.3,3.1,24.7,16.3,30.2c13.8,5.8,24.7,0.3,34.5-9.8c18.8-19.2,37.5-38.6,57.2-56.8c5.6-5.2,14.8-8.2,22.5-8.8
		c23.2-1.8,46.8-0.1,69.9-2.8C740.8,805.4,878.5,613,837.5,419.3z M775.6,630.7C713.3,747,613.2,802.8,480.7,797.2
		c-21.3-0.9-38.8,2.3-53.2,19.4c-14.5,17.2-30.6,33.2-46,49.7c-1.8-1.2-3.6-2.5-5.4-3.7c0-18.1-1-36.3,0.2-54.3
		c1.6-24.1-8.8-38.6-29.5-50.5c-23.5-13.5-44.4-29-62.9-46.5c-0.1-0.1-0.2-0.2-0.3-0.3c-35.9-34.2-62.1-75.9-77.6-125.4
		c-10.7-30.9-15.9-62.4-16.3-93.5c-0.4-23.7,2.1-47.1,7.2-69.9c27.7-125.4,133-230.6,275.2-243.2c7.5-0.7,14.9-1.1,22.3-1.2
		c2.2,0,4.4-0.1,6.6-0.1c1.9,0,3.8,0,5.6,0.1c6.8,0.1,13.6,0.5,20.6,1.1c0.6,0.1,1.3,0.1,1.9,0.1c77.7,6.9,144.4,41.4,193.4,91.8
		c1.7,1.7,3.3,3.4,4.9,5.1c38.1,40.9,64.9,91.7,77,146.2C819.4,489.7,811.9,562.9,775.6,630.7z"/>
	<path d="M370.4,915.7c-4.4,0-8.9-1-13.4-2.9c-20.5-8.6-20.3-29.3-20.3-36.2c0.1-8.6,0-17.2,0-25.7c-0.1-13.4-0.2-27.3,0.3-41
		c0.3-9-2.2-13.3-10-18.1c-13.2-7.9-25.9-16.5-37.8-25.4c-8-6.1-15.6-12.3-22.6-18.4c-0.1-0.1-0.3-0.3-0.5-0.5l-0.3-0.3
		c-45.6-41.6-79.7-94.5-98.7-153l-0.3-1c-8.6-28.5-13.9-59.4-15.7-91.9c-0.1-0.9-0.2-1.8-0.3-2.8c-0.2-1.5-0.4-3.1-0.4-4.7v-2.1
		c-0.3-24.6,2.2-49.5,7.4-73.9c1.2-5.9,2.7-12,4.4-18.1c4.5-17,10.4-34.1,17.6-50.7c1-2.3,2-4.7,3.1-7l1.5-3.1
		c0.8-1.7,1.6-3.4,2.5-5c1-2,1.9-3.8,2.8-5.6c1-1.8,1.9-3.6,2.8-5.4l3-5.5c60.5-107.5,169.7-174.5,292.1-179.3
		c2.3-0.1,4.3-0.1,6.3-0.2c2.2,0,4.2-0.1,6.2-0.1h1.3c2.7,0,5.4,0,8.1,0.1c4.3,0.1,8.2,0.2,12,0.5c126.2,7.2,239.1,83.1,294.6,198.1
		l1.2,2.4c0.8,1.6,1.6,3.3,2.3,5c0.8,1.6,1.5,3.2,2.1,4.8c7.1,16.3,13.1,33.3,17.6,50.5c0.1,0.4,0.2,0.8,0.3,1.2
		c1.6,5.9,3,11.7,4.1,17.3l0,0c20,94.1-1.4,193.8-58.6,273.6c-57.2,79.8-145,132.1-240.7,143.4c-13.3,1.6-26.7,1.7-39.8,1.9
		c-10,0.1-20.4,0.2-30.4,1c-7.1,0.5-14.6,3.4-18.7,7.2c-17.8,16.3-35,34-51.6,51l-5.4,5.5C389.4,911,380.1,915.7,370.4,915.7z
		 M179.2,590.5c18.3,56.3,51.1,107.2,95.1,147.3l0.6,0.6c6.8,6,14.1,12,21.9,17.8c11.5,8.6,23.8,16.9,36.6,24.6
		c11.8,7.1,16.6,15.9,16.2,29.5c-0.5,13.5-0.4,27.2-0.3,40.5c0.1,8.7,0.1,17.3,0,26c-0.1,13.5,3.5,20.5,12.4,24.2
		c9.6,4,17.9,1.5,27.5-8.3l5.4-5.5c16.8-17.2,34.1-35,52.1-51.5c7.4-6.8,18.5-9.9,26.4-10.5c10.4-0.8,21-0.9,31.2-1
		c12.7-0.1,25.8-0.3,38.4-1.8c92.2-10.9,176.6-61.3,231.8-138.2c55.1-76.9,75.7-173,56.5-263.6v0c-1.2-5.5-2.5-11.2-4.1-17l-0.2-0.9
		c-4.4-16.6-10.1-33-17-48.7c-0.7-1.5-1.3-3-2-4.5c-0.8-1.8-1.5-3.3-2.3-4.9l-1.2-2.4c-53.4-110.9-162.2-184-283.8-190.9
		c-3.6-0.2-7.4-0.4-11.6-0.4c-2.6-0.1-5.2-0.1-7.8-0.1h-1.3c-2,0-3.9,0-5.9,0.1c-2.1,0-4,0.1-6,0.2
		c-118.1,4.7-223.4,69.2-281.6,172.8l-2.9,5.3c-0.9,1.7-1.8,3.5-2.8,5.3c-0.9,1.7-1.7,3.4-2.6,5.1c-0.9,1.8-1.7,3.4-2.4,5l-1.5,3.1
		c-1,2.2-2,4.4-3,6.6c-7,16-12.7,32.5-17,48.9c-1.6,6-3,11.8-4.2,17.5c-5,23.5-7.4,47.4-7.1,71.2v2c0,0.9,0.2,2.1,0.3,3.3
		c0.2,1.2,0.3,2.5,0.4,3.6c1.8,31.4,6.9,61.2,15.1,88.8C179,589.8,179.1,590.1,179.2,590.5z M382.5,874.6l-4.5-3
		c-1.2-0.8-2.3-1.6-3.5-2.4l-4.7-3.3v-3.4c0-5.5-0.1-11.1-0.2-16.6c-0.2-12.5-0.4-25.3,0.5-38.1c1.4-20.1-6.3-33-26.3-44.6
		c-23.9-13.8-45.4-29.7-64.1-47.4l-0.6-0.5c-36.8-35.1-63.4-78.1-79.1-127.8c-10.6-30.7-16.2-62.8-16.6-95.3
		c-0.4-23.9,2.1-47.9,7.4-71.4c30.1-136.2,143-235.9,280.9-248.1c7.9-0.7,15.6-1.1,22.8-1.2c4.1-0.1,8.2-0.1,12.5,0
		c6.9,0.1,14,0.5,21,1.1c0.4,0,0.5,0.1,0.8,0.1c0.4,0,0.9,0.1,1.3,0.1c75.9,6.7,144.2,39.1,197.2,93.7c1.7,1.7,3.3,3.5,5,5.2
		c39.1,41.9,66.2,93.5,78.5,149.2c16.2,73,6,146.6-29.4,212.9l0,0c-63.4,118.4-164.6,175.6-300.8,169.9c-19.4-0.8-35,1.8-48,17.1
		c-10.2,12.1-21.3,23.7-32,34.9c-4.8,5-9.5,10-14.2,15L382.5,874.6z M288.7,706.9c17.9,16.9,38.5,32.1,61.4,45.3
		c24.2,14,34.3,31.4,32.6,56.5c-0.8,12.2-0.6,24.8-0.4,37c0.1,3.4,0.1,6.8,0.1,10.2c2.9-3.1,5.8-6.1,8.8-9.2
		c10.6-11.1,21.5-22.5,31.5-34.3C440,792,460.9,790,481,790.9c130.9,5.5,228.1-49.4,289-163.2l0,0c34-63.5,43.7-134.1,28.2-204.1
		c-11.8-53.5-37.9-103-75.4-143.3c-1.6-1.7-3.2-3.4-4.8-5C667,223,601.6,191.9,528.6,185.5c-0.3,0-0.5,0-0.7-0.1
		c-0.4,0-0.9-0.1-1.3-0.1c-6.6-0.6-13.3-0.9-20-1c-4.1-0.1-8-0.1-12,0c-6.9,0.1-14.3,0.5-21.8,1.2
		c-132.3,11.7-240.6,107.4-269.5,238.2c-5,22.5-7.4,45.5-7.1,68.4c0.4,31.2,5.8,61.9,16,91.5c15,47.8,40.5,89,75.8,122.6
		C288.2,706.4,288.5,706.7,288.7,706.9z"/>
</g>
</svg>
