<?xml version="1.0" encoding="utf-8"?>
<!-- Generator: Adobe Illustrator 28.1.0, SVG Export Plug-In . SVG Version: 6.00 Build 0)  -->
<svg version="1.1" id="Camada_1" xmlns="http://www.w3.org/2000/svg" xmlns:xlink="http://www.w3.org/1999/xlink" x="0px" y="0px"
	 viewBox="0 0 1000 1000" style="enable-background:new 0 0 1000 1000;" xml:space="preserve">
<style type="text/css">
	.st0{display:none;}
	.st1{display:inline;stroke:#000000;stroke-width:3;stroke-miterlimit:10;}
	.st2{stroke:#000000;stroke-width:9;stroke-miterlimit:10;}
	.st3{display:inline;}
</style>
<g class="st0">
	<path class="st1" d="M782.4,361c0.8,4.4,1.3,8.8,1.5,13.2c0.5,22.2-6.1,44.6-20.2,69.4c-38.6,67.5-58.1,141.1-57.8,218.7
		c0.2,63.5,0.2,128,0.1,190.5c0,19.3,0,38.5,0,57.8c0,4.1,3.4,7.5,7.5,7.4c10.6-0.1,21.3-0.3,31.9-0.7c4-0.1,7.2-3.4,7.2-7.4
		c0-17.1,0.1-34.3,0.2-51.4c0.3-61.4,0.6-125-0.7-187.5c-1.5-76.2,16.6-145.6,55.3-212.2c18.7-32.1,25.8-65.7,21.2-99.9
		c-7-52.4-35.4-88.4-82.2-104.1c-11.1-3.7-22.6-5.2-33.8-6.7l0,0c-3.2-0.4-5.7-2.8-6.3-6c-9.9-48.1-35.9-81.2-77.4-98.4
		c-43-17.8-84.6-11.8-123.8,17.9c-2.6,2-6.3,1.9-9-0.1c-39.1-29.6-80.6-35.6-123.4-17.9c-41.2,17-67.3,50.2-77.7,98.8
		c-0.7,3.3-3.5,5.6-6.8,5.8c-65.8,4.2-114.3,54.1-116.7,121.5c-1.1,32,7.2,63.1,25.4,95.2c36.2,63.8,53.2,128.2,51.8,196.7
		c-0.6,30.3-0.5,61-0.3,90.7c0.1,13.5,0.1,27,0.1,40.4v37.8c0,26.3,0,52.5,0,78.8c0,4.2,3.6,7.6,7.8,7.4c5-0.2,10-0.5,15.1-0.6
		c5.5-0.2,10.9-0.3,16.4-0.4c4-0.1,7.3-3.4,7.3-7.4c0-17.9,0-35.7-0.1-53.6c-0.1-61.2-0.2-124.5,0.3-186.6
		c0.7-80.4-18.6-154.8-58.9-227.4c-7.9-14.2-13.5-28.8-16.6-42.7c-0.4-2-0.7-3.9-1-5.8c-3.9-28.2,4.1-55,21.9-73.5
		c16.7-17.4,39.9-25.6,65.3-23.1c23.5,2.3,28.8-2.7,31.3-22.3c0.5-2.8,0.9-5.8,1.2-9.1c0.2-2,0.5-3.9,0.7-5.8
		c6-35.5,23.5-58.5,53.5-70c32.4-12.4,61.8-4.8,89.8,23.2c5.1,5.1,10.9,10.8,18.6,10.8c7.8,0,13.4-5.7,18.8-11.2
		c16.2-16.5,33.5-25.5,52.8-27.5c22.5-2.3,44.1,4.4,61,18.9c10.7,9.1,18.8,20.7,24,33.9c2.8,8.2,4.5,16.9,5,26.1
		c0.4,8.4,0.9,15.4,3.7,21.1c1,3.3,2.6,6.1,5.2,8.4c6.2,5.3,14.5,4.5,24.9,3.4C738.1,291,775,319.3,782.4,361z"/>
	<path class="st1" d="M570.9,439.1c-12.2-16.2-24.6-25.8-39.2-30.4c-40.3-12.5-73.7-1.7-99.1,32c-15.8,20.9-30.7,41.7-44.3,61.9
		c-5.7,8.5-10.6,18.6-14.2,29.2c-7.1,21-4.8,42.6,6.4,59.1c11,16.3,29.8,26.4,51.5,27.6c8.9,0.5,129.8,0.3,145.2-0.4
		c25.4-1.2,44.3-15.4,53.4-40c8.8-23.7,4.7-47.7-12.4-73.3C603,482.1,586.5,459.9,570.9,439.1z M600.2,579.9
		c-6.5,7.8-16.5,12.5-28.8,13.4c-3,0.2-6.1,0.2-9.4,0.1c-1.6,0-3.2-0.1-4.7-0.1h-5.4v0.1c-0.8-0.1-1.6-0.2-2.5-0.3
		c-6.3-0.8-76.1-0.4-86.3-0.3c-2.5,0-5,0.1-7.4,0.1c-9.8,0.2-19.9,0.4-29.1-1.4c-10.9-2.1-19.9-8-25.2-16.7
		c-5.6-9.1-6.9-20.4-3.6-32c1.8-6.2,4.1-13.3,7.9-18.7l1.4-2c16.9-24.1,34.4-49,52.8-72.4c14-17.8,33.9-24.2,55.9-18
		c11.2,3.1,21.6,9.3,27.1,16.2c19.6,24.1,37.4,49.3,58,79.7c3.7,5.5,6.3,13.6,7.2,22.9C609.3,562.2,606.5,572.3,600.2,579.9z"/>
	<path class="st1" d="M438.7,372.9c3.2-0.1,6.4-0.5,9.5-1.3c15.6-4,27.7-16.7,32.6-34.9c4.7-17.1,1.5-60.4-28.2-79.5
		c-11.5-7.4-24.2-10.3-36.1-7.2c-12.2,3.1-22.3,11.8-28.7,24.4c-12.9,25.8-6.8,61.2,14.4,82.4C412.9,367.5,425.8,373.1,438.7,372.9z
		 M408.1,288.8c2.8-7.8,7.9-13.1,14.2-14.8c1.4-0.4,2.7-0.6,4.1-0.6c5.1-0.1,10.4,2,15.4,6.1c10.5,8.8,15.6,20.7,17.2,39.8
		c-0.2,1,1.2,26.8-17.7,28.6c-6.6,0.6-13.8-1.2-20.3-7C407.8,329,402.1,305.6,408.1,288.8z"/>
	<path class="st1" d="M385,422.1c-1.9-17.7-20.5-56.8-55.1-63.9c-13.4-2.8-26.3-0.8-36.3,6.4c-10.2,7.4-16.5,19.1-17.9,33.1
		c-2.7,28.7,15.9,59.5,43.3,71.5c14,6.2,28.1,6.7,39.9,1.8c2.9-1.2,5.7-2.8,8.4-4.7C380.3,457,386.9,440.9,385,422.1z M352.2,447
		c-5.9,3-13.3,3.9-21.5,0.8c-16.5-6.3-30.4-26-30.8-43.9c-0.2-8.3,2.6-15.1,7.9-19c1.1-0.8,2.3-1.5,3.6-2c4.7-2,10.4-1.9,16.5,0.1
		c12.9,4.4,22.1,13.6,30.4,30.8C358.5,414.8,369.1,438.4,352.2,447z"/>
	<path class="st1" d="M544.3,366.1c2.7,1.8,5.5,3.2,8.5,4.3c15.1,5.6,32.2,2.1,46.7-10c13.6-11.4,35.7-48.7,22.3-81.4
		c-5.2-12.7-14-22.2-25.6-26.5c-11.8-4.4-25.1-3.1-37.5,3.7c-25.3,13.8-40.5,46.3-35.3,75.8C526.3,347,533.7,359,544.3,366.1z
		 M567.2,279.6c6.8-4.8,13.9-6.3,20.1-4.1c1.3,0.5,2.5,1.1,3.7,1.9c4.2,2.8,7.4,7.6,9.1,13.8c3.6,13.2,1,25.9-8.6,42.5
		c-0.7,0.7-14.3,22.6-30.9,13.4c-5.8-3.2-10.7-8.9-12.6-17.4C544.1,312.4,552.7,290,567.2,279.6z"/>
	<path class="st1" d="M727.3,409.4c-0.8-13.7-6-25.6-15.5-33.4c-9.7-8-22.7-11.1-36.6-8.8c-28.4,4.7-53.4,30.6-58,60.2
		c-2.4,15.1,0.7,28.9,8.5,39c1.9,2.5,4.2,4.8,6.7,6.9c12.5,10.2,29.8,12.5,47.4,5.8C696.3,472.7,729.3,444.7,727.3,409.4z
		 M680.8,451.2c-0.9,0.4-20.9,16.7-33.6,2.5c-4.4-4.9-7.2-11.9-6.3-20.5c1.9-17.6,17.4-36,34.5-41c8-2.4,15.2-1.4,20.3,2.7
		c1.1,0.9,2.1,1.9,2.9,3c3.1,4,4.5,9.6,4.1,16C701.9,427.5,695.3,438.7,680.8,451.2z"/>
</g>
<g>
	<path class="st2" d="M499.5,807.8c-63.7,0-127.4-1.4-191.1,0.4c-65,1.8-115.1-49.4-113.7-113.2c1.7-77.8,0.8-155.6,0.2-233.4
		c-0.3-39.2,14.7-69.9,45.4-93.9c62.8-49.1,125.1-98.8,187.7-148c47.3-37.2,97-37.2,144.2-0.1c62.3,49.1,124.3,98.6,186.8,147.3
		c31.5,24.5,46.6,55.7,46.3,95.8c-0.7,78.6,0,157.1-0.3,235.7c-0.2,55-35.9,98.9-87.1,107.6c-9,1.5-18.2,1.7-27.4,1.7
		C626.9,807.9,563.2,807.8,499.5,807.8z M499.5,777.4c64.5,0,128.9,0,193.4,0c49.7,0,81.8-31.8,81.8-81.3
		c0.1-78.6-0.2-157.1,0.1-235.7c0.1-27.9-10.3-50-32.3-67.3C678.7,343,615.2,292.4,551.4,242.2c-33.5-26.4-68.9-26.4-102.5,0.1
		C385.1,292.5,321.5,343,257.7,393.1c-21.6,17-32.3,38.7-32.2,66.1c0.2,78.9,0,157.9,0.1,236.8c0.1,49.4,32.1,81.2,81.8,81.3
		C371.4,777.5,435.5,777.4,499.5,777.4z"/>
</g>
<g class="st0">
	<g class="st3">
		<g>
			<path d="M731.9,433.4c-4.8-35.8-24.2-60.4-56.1-71.1c-7.6-2.5-15.5-3.6-23.2-4.6c-1.8-0.2-3.6-0.5-5.4-0.7
				c-5.9-35.8-24-60.2-53.9-72.5c-31-12.8-60.9-7.5-89,15.7c-28.1-23.3-58-28.6-88.8-15.9c-29.7,12.3-47.9,36.9-54.2,73.3
				c-47.8,0.2-83.7,35.2-85.4,83.2c-0.8,22,5,43.4,17.5,65.5c24.8,43.7,36.8,87.6,36.6,134.5l0,0c0,2.6,1.4,4.9,3.6,6.2l0,0
				c1.8,1.1,3.7,2.1,5.5,3.2c2.1,1.2,4.2,2.5,6.2,3.8l2,1.2c4.7,2.9,10.8-0.5,10.8-6l0,0c0.4-55.8-13-107.4-41-157.8
				c-6.9-12.5-11.5-25.4-13.1-37.4c-2.8-20,2.9-39,15.5-52.1c11.9-12.4,28.3-18.2,46.3-16.4c17.9,1.8,20.9-2.5,22.6-19.1
				c2.9-29.4,15.7-48,39-56.9c23-8.8,43.8-3.4,63.7,16.5c3.6,3.6,7.7,7.7,13.2,7.7s9.5-4,13.3-8c11.5-11.7,23.8-18.1,37.4-19.5
				c15.9-1.6,31.3,3.1,43.3,13.4c13,11.2,20.8,27.4,21.7,45.8l0,0c0.4,8,0.7,13.8,5.2,17.6c4.4,3.8,10.3,3.2,17.7,2.4
				c29.4-3,55.6,17,60.8,46.6c3.5,19.9-0.7,39.4-13.3,61.5c-26.9,46.9-40.4,98.1-40.2,152.1v0.7c0,5.1,5.2,8.5,9.9,6.5l0,0
				c2.2-0.9,4.4-1.9,6.6-2.8l7.1-3c2.6-1.1,4.3-3.6,4.3-6.4l0,0c0.8-49.5,13.6-94.8,39-138.5C730.1,479.9,735,456.9,731.9,433.4z"/>
			<path d="M351.1,661c-2.1,0-4.3-0.6-6.2-1.8l-2.6-1.6c-1.9-1.1-3.7-2.3-5.6-3.4c-1.8-1.1-3.6-2.1-5.5-3.2c-3.7-2.1-6-6.1-6-10.4
				c0.2-46-11.6-89.2-36-132.1c-13-22.9-18.9-45.2-18.1-68c1.8-49.3,37.7-85.6,86.2-87.7c7.2-36,26.2-60.5,56.4-73
				c31.5-13,61.9-8.2,90.6,14.1c28.7-22.4,59.2-27.1,90.8-14c30.5,12.6,49.3,37.1,56.1,72.7c0.5,0.1,1.1,0.1,1.7,0.2
				c8.2,1.1,16.4,2.1,24.4,4.8c33.8,11.4,54.3,37.3,59.3,75.1l0,0c3.3,24.5-1.8,48.6-15.2,71.6c-25,43-37.5,87.5-38.4,136.2
				c-0.1,4.7-2.9,8.9-7.2,10.8l-7.1,3c-2.2,0.9-4.4,1.9-6.5,2.8c-3.7,1.6-7.9,1.2-11.2-1s-5.4-5.9-5.4-9.9v-0.7
				c-0.2-54.9,13.6-106.8,40.8-154.5c12-21,16.1-39.5,12.7-58.2c-4.8-27.1-28.8-45.5-55.7-42.7c-7.9,0.8-15.3,1.6-21.2-3.5
				c-6-5.1-6.4-12.5-6.9-21c-0.9-17-8-32.1-20.1-42.4c-11-9.4-25.1-13.8-39.7-12.3c-12.5,1.3-23.8,7.2-34.5,18.1
				c-4.1,4.2-9.2,9.4-16.7,9.4c-7.6,0-12.8-5.2-16.6-9.1c-18.7-18.7-37.3-23.6-58.6-15.4c-21.4,8.2-33.2,25.5-35.9,53
				c-1.8,17.9-6.2,25.5-27.8,23.4c-16.5-1.6-31.5,3.7-42.4,15c-11.6,12.1-16.8,29.6-14.2,48.2c1.6,11.4,5.9,23.7,12.6,35.7
				c28.4,51.1,42,103.5,41.6,160.1c0,4.3-2.3,8.2-6.1,10.3C355.1,660.5,353.1,661,351.1,661z M447.7,282.4c-10,0-20.1,2.1-30.3,6.3
				c-28,11.6-45.3,35-51.3,69.7l-0.7,4h-4c-45.1,0.2-79,33.2-80.6,78.6c-0.8,21.1,4.8,41.7,16.9,63c25.2,44.4,37.4,89.2,37.2,136.9
				c0,0.8,0.4,1.6,1.2,2c1.9,1.1,3.7,2.2,5.6,3.2c1.9,1.1,3.8,2.3,5.7,3.4l2.6,1.6c1,0.6,2,0.2,2.4,0s1.2-0.8,1.2-2
				c0.4-54.9-12.8-105.8-40.4-155.4c-7.2-13-11.9-26.5-13.7-39c-3-21.4,3.1-41.9,16.8-56.1c12.9-13.4,30.7-19.8,50.2-17.8
				c14.8,1.5,15.9-0.3,17.3-14.8c3.1-31.4,16.9-51.3,42-60.9c24.9-9.5,47.4-3.8,68.8,17.6c3.1,3.1,6.3,6.3,9.8,6.3s6.5-3,9.9-6.5
				c12.3-12.5,25.5-19.4,40.3-20.9c17.2-1.8,33.9,3.4,46.9,14.5c14,12,22.3,29.5,23.4,49.2c0.4,7.7,0.8,11.9,3.5,14.3
				c2.7,2.3,6.9,2,14,1.3c32-3.3,60.3,18.4,66.1,50.5c3.8,21.1-0.6,41.6-13.8,64.7c-26.4,46.2-39.8,96.6-39.6,149.7v0.7
				c0,1.1,0.7,1.7,1.1,1.9c0.4,0.3,1.2,0.6,2.2,0.2c2.2-0.9,4.4-1.9,6.6-2.8l7.1-3c0.8-0.4,1.4-1.2,1.4-2.1
				c0.9-50.3,13.8-96.4,39.7-140.8c12.3-21.1,17-43.2,14-65.5l0,0c-4.5-33.9-22.8-57.1-52.9-67.2c-7.1-2.4-14.8-3.4-22.3-4.4
				c-2-0.2-3.7-0.5-5.4-0.7l-3.5-0.5l-0.6-3.5c-5.6-34-22.8-57.2-51-68.9c-29.2-12.1-57.5-7-84.1,15l-3,2.5l-3-2.5
				C484,289.5,466.1,282.4,447.7,282.4z"/>
		</g>
		<g>
			<path d="M587.3,534.1c-10.8-16.2-22.5-31.9-33.5-46.7c-8.6-11.5-17.5-18.3-27.8-21.5c-28.6-8.8-52.2-1.2-70.3,22.7
				c-11.2,14.8-21.8,29.6-31.4,43.9c-4.1,6-7.5,13.2-10.1,20.7c-5,14.9-3.4,30.2,4.6,41.9c7.8,11.6,21.1,18.7,36.5,19.6
				c6.3,0.3,92.1,0.2,103-0.3c18-0.9,31.5-11,37.9-28.4C602.3,569.3,599.5,552.3,587.3,534.1z M574.6,587.2
				c-4.6,5.5-11.7,8.8-20.4,9.5c-2.2,0.2-4.3,0.1-6.7,0.1c-1.1,0-2.2,0-3.4,0h-3.8v0.1c-0.6-0.1-1.2-0.1-1.7-0.2
				c-4.5-0.5-53.9-0.3-61.2-0.2c-1.8,0-3.5,0-5.3,0.1c-6.9,0.1-14.1,0.3-20.7-1c-7.8-1.5-14.1-5.7-17.9-11.8
				c-4-6.5-4.9-14.5-2.6-22.7c1.2-4.4,2.9-9.4,5.6-13.3l1-1.4c12-17.1,24.4-34.8,37.5-51.4c10-12.6,24-17.1,39.6-12.8
				c7.9,2.2,15.3,6.6,19.2,11.5c13.9,17.1,26.5,35,41.2,56.5c2.6,3.9,4.5,9.6,5.1,16.2C581,574.7,579.1,581.9,574.6,587.2z"/>
			<path d="M488.9,619.8c-17.3,0-31.5-0.1-33.9-0.2c-16.9-1-31.5-8.8-40.2-21.7c-8.8-13-10.6-29.8-5.1-46.2
				c2.7-7.9,6.4-15.5,10.7-21.8c9.7-14.4,20.4-29.3,31.6-44.1c19.4-25.7,44.8-33.9,75.5-24.4c11.4,3.5,21,10.9,30.2,23.2
				c11.1,14.8,22.8,30.5,33.7,46.9l0,0c13,19.6,16.1,38,9.3,56.3c-7.2,19.3-22.1,30.5-42.2,31.5
				C551.4,619.6,516.4,619.8,488.9,619.8z M503.9,467.1c-17.4,0-32,8.1-44.3,24.4c-11.1,14.7-21.6,29.4-31.3,43.7
				c-3.8,5.7-7.1,12.4-9.5,19.6c-4.6,13.5-3.1,27.2,4,37.7c7,10.3,18.9,16.7,32.8,17.5c5.8,0.3,91.8,0.2,102.5-0.3
				c16.2-0.8,27.8-9.5,33.6-25.2c5.6-15.2,2.9-30.8-8.3-47.7C572.6,520.6,561,505,550,490.3c-8-10.6-16.1-16.9-25.4-19.8
				C517.2,468.2,510.4,467.1,503.9,467.1z M544.8,602.1l-6.7-0.7c-3.6-0.4-47.2-0.3-60.6-0.2c-1.7,0-3.5,0-5.2,0.1
				c-7.2,0.1-14.6,0.3-21.7-1.1c-9.1-1.8-16.5-6.7-21-14c-4.7-7.6-5.8-17-3.1-26.5c1.4-4.8,3.2-10.3,6.3-14.7l1-1.4
				c12-17.1,24.4-34.9,37.6-51.6c11.2-14.2,27.1-19.3,44.7-14.4c9,2.5,17.1,7.4,21.7,13.1c14,17.2,26.7,35.2,41.4,56.8
				c3.1,4.5,5.2,11.1,5.9,18.4c1,9.5-1.3,18-6.7,24.3c-5.5,6.5-13.7,10.4-23.7,11.2c-2.4,0.2-4.7,0.1-7.2,0.1c-0.9,0-1.8,0-2.6,0
				L544.8,602.1z M540.4,592h3.8c1.2,0,2.3,0,3.5,0c2.2,0,4.3,0.1,6.2-0.1c7.4-0.6,13.3-3.3,17.1-7.8l0,0c3.6-4.3,5.2-10.3,4.5-17.2
				c-0.6-5.7-2.2-10.8-4.3-14c-14.6-21.5-27.2-39.2-40.9-56.2c-3.3-4.1-9.9-7.9-16.8-9.9c-13.8-3.9-25.8,0-34.6,11.1
				c-13,16.5-25.4,34.1-37.3,51.1l-1,1.4c-2.3,3.3-3.8,7.8-4.9,11.8c-2,6.9-1.2,13.5,2,18.8c3.1,5,8.3,8.4,14.7,9.7
				c6.1,1.2,13,1,19.6,0.9c1.8,0,3.6-0.1,5.3-0.1c0.6,0,56.5-0.4,61.8,0.2l0.8,0.1L540.4,592z"/>
		</g>
		<g>
			<path d="M469.9,358.4c-8.2-5.3-17.1-7.3-25.6-5.1c-8.6,2.2-15.8,8.4-20.3,17.3c-9.2,18.3-4.8,43.4,10.2,58.4
				c7.7,7.7,16.8,11.7,25.9,11.5c2.2,0,4.5-0.4,6.7-0.9c11.1-2.9,19.6-11.9,23.1-24.7C493.2,402.6,491,372,469.9,358.4z
				 M474.4,402.4c-0.1,0.7,0.8,19-12.6,20.3c-4.6,0.5-9.8-0.8-14.4-5c-9.3-8.4-13.4-25-9.1-36.9c2-5.6,5.6-9.3,10.1-10.5
				c1-0.3,1.9-0.4,2.9-0.4c3.6-0.1,7.4,1.4,10.9,4.3C469.7,380.4,473.3,388.9,474.4,402.4z"/>
			<path d="M459.4,445.2c-10.2,0-20.3-4.6-28.6-12.9c-16.4-16.4-21.1-43.9-11.1-63.9c5.1-10.2,13.4-17.2,23.4-19.8
				c9.5-2.5,19.9-0.4,29.4,5.7l0,0c23,14.9,25.7,48,22,61.7c-4,14.5-13.6,24.8-26.5,28.1c-2.6,0.7-5.2,1-7.8,1.1
				C459.9,445.2,459.6,445.2,459.4,445.2z M451.2,357.1c-2,0-3.9,0.2-5.8,0.7c-7.3,1.9-13.4,7.1-17.2,14.8
				c-8.3,16.5-4.3,39.2,9.3,52.9c6.6,6.7,14.7,10.3,22.4,10.1c1.9,0,3.8-0.3,5.6-0.8c9.5-2.5,16.7-10.2,19.7-21.4
				c2.7-9.9,1.4-38.6-18-51.1C462,358.9,456.5,357.1,451.2,357.1z M460.1,427.6c-5.8,0-11.3-2.2-15.8-6.3
				c-10.8-9.8-15.3-28.3-10.4-42.1c2.5-7.1,7.3-11.9,13.3-13.5c1.3-0.4,2.7-0.6,4.1-0.6c4.8-0.1,9.7,1.8,14,5.4
				c8.4,7,12.7,16.7,13.9,31.5l0.1,0.7l-0.1,0.4c-0.4,20.5-11.9,23.9-16.9,24.4C461.6,427.5,460.8,427.6,460.1,427.6z M451.6,374.7
				c-0.1,0-0.1,0-0.2,0c-0.6,0-1.2,0.1-1.8,0.3c-3,0.8-5.4,3.5-6.8,7.5c-3.6,10.1,0,24.6,7.8,31.8c4,3.6,8,4,10.7,3.8
				c5.3-0.5,8-5.6,8.2-15c0-0.1,0-0.3,0-0.4c-1-12-4.1-19.4-10.5-24.6C456.7,375.8,454.1,374.7,451.6,374.7z"/>
		</g>
		<g>
			<path d="M382.9,430.1c-9.5-2-18.6-0.6-25.7,4.6c-7.2,5.2-11.7,13.6-12.7,23.5c-1.9,20.4,11.3,42.2,30.7,50.7
				c9.9,4.4,19.9,4.8,28.3,1.3c2.1-0.9,4.1-2,5.9-3.3c9.3-6.7,14-18.2,12.6-31.5C420.6,462.8,407.4,435.1,382.9,430.1z M403.1,469.5
				c0.1,0.7,7.7,17.4-4.4,23.5c-4.2,2.1-9.5,2.8-15.2,0.6c-11.7-4.5-21.5-18.4-21.9-31.1c-0.2-5.9,1.8-10.7,5.6-13.5
				c0.8-0.6,1.6-1.1,2.6-1.5c3.3-1.4,7.4-1.4,11.7,0.1C390.6,450.7,397.1,457.3,403.1,469.5z"/>
			<path d="M391.4,517.3c-5.9,0-12.1-1.3-18.2-4c-21.2-9.4-35.6-33.2-33.5-55.5c1.1-11.3,6.3-20.9,14.6-26.9
				c7.9-5.7,18.4-7.6,29.5-5.4c26.9,5.5,41.4,35.4,42.9,49.5c1.6,15-3.7,28-14.5,35.8c-2.1,1.5-4.5,2.8-6.9,3.8
				C401,516.4,396.3,517.3,391.4,517.3z M374.7,434c-5.6,0-10.7,1.5-14.8,4.5c-6.1,4.4-9.9,11.5-10.7,20.1
				c-1.7,18.4,10.2,38.1,27.9,45.9c8.6,3.8,17.3,4.2,24.5,1.2c1.8-0.7,3.4-1.7,5-2.8c8-5.7,11.8-15.6,10.6-27.1
				c-1.1-10.2-12.8-36.5-35.3-41.1l0,0C379.4,434.3,377,434,374.7,434z M390.6,499.7c-2.9,0-5.9-0.6-8.8-1.7
				c-13.6-5.2-24.5-20.8-24.9-35.4c-0.2-7.5,2.5-13.7,7.5-17.4c1.1-0.8,2.3-1.5,3.6-2c4.5-1.9,9.7-1.9,15.1,0
				c10.4,3.5,17.9,11,24.4,24.3l0.4,1c7.1,19.3-2.5,26.6-6.9,28.8C397.6,498.9,394.1,499.7,390.6,499.7z M375.2,451.3
				c-1.3,0-2.5,0.2-3.6,0.7c-0.6,0.2-1.1,0.5-1.6,0.9c-2.5,1.8-3.8,5.2-3.6,9.5c0.3,10.7,8.9,23,18.8,26.8c5,1.9,8.9,0.9,11.3-0.4
				c4.7-2.4,5.5-8.1,2.2-17c0-0.1-0.1-0.3-0.1-0.4c-5.3-10.8-10.9-16.5-18.7-19.2C378.2,451.6,376.6,451.3,375.2,451.3z"/>
		</g>
		<g>
			<path d="M590,373.9c-3.7-9-9.9-15.8-18.1-18.8c-8.4-3.1-17.8-2.2-26.6,2.6c-18,9.8-28.7,32.9-25,53.8
				c1.9,10.7,7.1,19.2,14.7,24.2c1.9,1.2,3.9,2.3,6,3.1c10.7,4,22.9,1.5,33.1-7.1C583.8,423.5,599.5,397.1,590,373.9z M568.5,412.6
				c-0.5,0.5-10.2,16-21.9,9.5c-4.1-2.3-7.6-6.3-9-12.3c-2.8-12.2,3.3-28.1,13.6-35.5c4.8-3.4,9.9-4.4,14.3-2.9
				c0.9,0.3,1.8,0.8,2.6,1.3c3,2,5.3,5.4,6.5,9.8C577.2,391.9,575.3,400.9,568.5,412.6z"/>
			<path d="M551.4,445.3c-4,0-8.1-0.7-12-2.1c-2.5-0.9-4.8-2.1-7-3.6c-8.7-5.8-14.7-15.5-16.8-27.4c-4-22.8,7.7-48.1,27.4-58.8
				c10-5.4,20.8-6.5,30.5-2.9c9.2,3.4,16.6,11,20.9,21.5l0,0c10.4,25.4-6.3,54.1-17.2,63.2C569.3,441.9,560.3,445.3,551.4,445.3z
				 M561.7,358.1c-4.7,0-9.5,1.3-14.2,3.8c-16.2,8.8-25.9,29.8-22.6,48.7c1.7,9.3,6.1,16.8,12.6,21.1c1.6,1,3.3,1.9,5.1,2.6
				c9.2,3.4,19.5,1.1,28.4-6.3c7.9-6.6,23.2-30.9,14.5-52.2c-3.3-8.1-8.6-13.6-15.4-16.1C567.5,358.6,564.6,358.1,561.7,358.1z
				 M552.5,428.5c-3.6,0-6.5-1.2-8.3-2.2c-5.7-3.2-9.8-8.7-11.3-15.4c-3.2-14.2,3.6-32,15.5-40.5c6.1-4.4,12.8-5.6,18.7-3.5
				c1.3,0.5,2.5,1.1,3.7,1.8c4,2.7,6.9,7,8.4,12.5c2.9,10.6,0.8,21-6.6,33.8l-0.6,0.9C564.8,425.8,557.8,428.5,552.5,428.5z
				 M561.3,375.5c-2.3,0-4.8,0.9-7.3,2.7c-8.7,6.2-14.1,20.2-11.7,30.5c1.2,5.2,4.3,7.9,6.6,9.2c5.8,3.2,11.5-2.4,15.3-7.6
				c0.1-0.1,0.2-0.2,0.2-0.3c6-10.4,7.7-18.3,5.5-26.2c-0.9-3.2-2.4-5.7-4.5-7c-0.5-0.3-1-0.6-1.6-0.8
				C563.1,375.7,562.2,375.5,561.3,375.5z"/>
		</g>
		<g>
			<path d="M664.7,466.3c-0.6-9.7-4.2-18.1-11-23.7c-6.9-5.6-16.1-7.9-26-6.2c-20.2,3.4-37.9,21.7-41.2,42.7
				c-1.7,10.7,0.5,20.5,6,27.7c1.4,1.8,3,3.4,4.7,4.9c8.8,7.2,21.1,8.8,33.6,4.1C642.7,511.3,666.1,491.4,664.7,466.3z M631.8,496
				c-0.6,0.3-14.8,11.9-23.8,1.8c-3.1-3.5-5.1-8.4-4.5-14.5c1.3-12.5,12.3-25.5,24.5-29.1c5.7-1.7,10.8-1,14.4,1.9
				c0.8,0.6,1.5,1.3,2.1,2.1c2.2,2.9,3.2,6.8,2.9,11.3C646.7,479.2,642.1,487.1,631.8,496z"/>
			<path d="M616.8,523.3c-8.4,0-16.2-2.7-22.5-7.9c-2-1.7-3.9-3.6-5.5-5.7c-6.4-8.3-8.8-19.4-6.9-31.3c3.6-22.9,23-43,45.1-46.6
				c11.2-1.9,21.8,0.7,29.8,7.2c7.6,6.2,12.1,15.8,12.7,27.1l0,0c1.6,27.4-23.6,49.1-36.8,54.1C627.3,522.2,622,523.3,616.8,523.3z
				 M634,440.7c-1.8,0-3.6,0.1-5.5,0.5c-18.2,3-34.2,19.7-37.2,38.7c-1.5,9.3,0.3,17.8,5.1,24c1.2,1.5,2.5,2.9,4,4.1
				c7.6,6.2,18.1,7.4,28.9,3.3c9.6-3.6,32-21.7,30.7-44.7c-0.5-8.7-3.7-15.7-9.3-20.3C646.1,442.6,640.3,440.7,634,440.7z
				 M617,506.6c-6.6,0-10.7-3.5-12.7-5.7c-4.4-4.9-6.4-11.4-5.7-18.2c1.5-14.5,13.8-29,27.9-33.2c7.2-2.1,13.9-1.1,18.8,2.8
				c1.1,0.9,2,1.8,2.9,2.9c2.9,3.8,4.3,8.9,3.9,14.6c-0.7,10.9-6,20.1-17.3,29.8l-0.9,0.6C627.2,505,621.5,506.6,617,506.6z
				 M633.8,458c-1.4,0-2.9,0.2-4.5,0.7c-10.3,3-19.9,14.5-21,25c-0.6,5.3,1.5,8.8,3.3,10.9c3.5,4,9.2,3.2,17-2.2
				c0.1-0.1,0.2-0.2,0.3-0.2c9.1-7.9,13.2-14.8,13.7-23c0.2-3.4-0.5-6.2-2-8.1c-0.4-0.5-0.8-0.9-1.3-1.3
				C637.9,458.6,636,458,633.8,458z"/>
		</g>
	</g>
	<g class="st3">
		<path d="M837.5,419.3c-1.2-5.9-2.6-11.6-4.2-17.4c0-0.1,0-0.3-0.1-0.4c-4.6-17.3-10.4-34-17.4-50c-0.7-1.6-1.4-3.1-2.1-4.7
			c-0.7-1.6-1.5-3.3-2.3-4.9c-0.4-0.8-0.8-1.6-1.2-2.4C756.7,228.3,647.1,152.1,521,144.9c-3.9-0.2-7.9-0.4-11.8-0.5
			c-2.6-0.1-5.3-0.1-7.9-0.1H500c-2,0-4.1,0-6.1,0.1c-2,0-4.1,0.1-6.1,0.2c-120.1,4.7-228.1,71.8-286.8,176c-1,1.8-2,3.5-2.9,5.3
			s-1.9,3.6-2.8,5.4c-0.9,1.8-1.9,3.6-2.8,5.5c-0.8,1.6-1.6,3.2-2.4,4.9c-0.5,1-1,2.1-1.5,3.2c-1.1,2.2-2.1,4.5-3.1,6.8
			c-6.9,16-12.8,32.6-17.3,49.8c-1.6,5.9-3,11.8-4.3,17.8c-5.2,24.3-7.5,48.6-7.2,72.6v1.9c0.1,2.4,0.6,5,0.7,7.3
			c1.8,32.1,7,62.2,15.4,90.4c0.1,0.3,0.2,0.6,0.3,0.8c18.7,57.5,52.3,109.5,96.9,150.2c0.2,0.2,0.5,0.5,0.7,0.7
			c7.1,6.2,14.5,12.3,22.3,18.1c11.6,8.8,24.1,17.1,37.2,25c10,6,13.5,12.6,13.1,23.8c-0.7,22.2,0,44.4-0.2,66.6
			c-0.1,13.3,3.1,24.7,16.3,30.2c13.8,5.8,24.7,0.3,34.5-9.8c18.8-19.2,37.5-38.6,57.2-56.8c5.6-5.2,14.8-8.2,22.5-8.8
			c23.2-1.8,46.8-0.1,69.9-2.8C740.8,805.4,878.5,613,837.5,419.3z M775.6,630.7C713.3,747,613.2,802.8,480.7,797.2
			c-21.3-0.9-38.8,2.3-53.2,19.4c-14.5,17.2-30.6,33.2-46,49.7c-1.8-1.2-3.6-2.5-5.4-3.7c0-18.1-1-36.3,0.2-54.3
			c1.6-24.1-8.8-38.6-29.5-50.5c-23.5-13.5-44.4-29-62.9-46.5c-0.1-0.1-0.2-0.2-0.3-0.3c-35.9-34.2-62.1-75.9-77.6-125.4
			c-10.7-30.9-15.9-62.4-16.3-93.5c-0.4-23.7,2.1-47.1,7.2-69.9c27.7-125.4,133-230.6,275.2-243.2c7.5-0.7,14.9-1.1,22.3-1.2
			c2.2,0,4.4-0.1,6.6-0.1c1.9,0,3.8,0,5.6,0.1c6.8,0.1,13.6,0.5,20.6,1.1c0.6,0.1,1.3,0.1,1.9,0.1c77.7,6.9,144.4,41.4,193.4,91.8
			c1.7,1.7,3.3,3.4,4.9,5.1c38.1,40.9,64.9,91.7,77,146.2C819.4,489.7,811.9,562.9,775.6,630.7z"/>
		<path d="M370.4,915.7c-4.4,0-8.9-1-13.4-2.9c-20.5-8.6-20.3-29.3-20.3-36.2c0.1-8.6,0-17.2,0-25.7c-0.1-13.4-0.2-27.3,0.3-41
			c0.3-9-2.2-13.3-10-18.1c-13.2-7.9-25.9-16.5-37.8-25.4c-8-6.1-15.6-12.3-22.6-18.4c-0.1-0.1-0.3-0.3-0.5-0.5l-0.3-0.3
			c-45.6-41.6-79.7-94.5-98.7-153l-0.3-1c-8.6-28.5-13.9-59.4-15.7-91.9c-0.1-0.9-0.2-1.8-0.3-2.8c-0.2-1.5-0.4-3.1-0.4-4.7v-2.1
			c-0.3-24.6,2.2-49.5,7.4-73.9c1.2-5.9,2.7-12,4.4-18.1c4.5-17,10.4-34.1,17.6-50.7c1-2.3,2-4.7,3.1-7l1.5-3.1
			c0.8-1.7,1.6-3.4,2.5-5c1-2,1.9-3.8,2.8-5.6c1-1.8,1.9-3.6,2.8-5.4l3-5.5C256,209.9,365.2,142.9,487.6,138.1
			c2.3-0.1,4.3-0.1,6.3-0.2c2.2,0,4.2-0.1,6.2-0.1h1.3c2.7,0,5.4,0,8.1,0.1c4.3,0.1,8.2,0.2,12,0.5
			c126.2,7.2,239.1,83.1,294.6,198.1l1.2,2.4c0.8,1.6,1.6,3.3,2.3,5c0.8,1.6,1.5,3.2,2.1,4.8c7.1,16.3,13.1,33.3,17.6,50.5
			c0.1,0.4,0.2,0.8,0.3,1.2c1.6,5.9,3,11.7,4.1,17.3l0,0c20,94.1-1.4,193.8-58.6,273.6c-57.2,79.8-145,132.1-240.7,143.4
			c-13.3,1.6-26.7,1.7-39.8,1.9c-10,0.1-20.4,0.2-30.4,1c-7.1,0.5-14.6,3.4-18.7,7.2c-17.8,16.3-35,34-51.6,51l-5.4,5.5
			C389.4,911,380.1,915.7,370.4,915.7z M179.2,590.5c18.3,56.3,51.1,107.2,95.1,147.3l0.6,0.6c6.8,6,14.1,12,21.9,17.8
			c11.5,8.6,23.8,16.9,36.6,24.6c11.8,7.1,16.6,15.9,16.2,29.5c-0.5,13.5-0.4,27.2-0.3,40.5c0.1,8.7,0.1,17.3,0,26
			c-0.1,13.5,3.5,20.5,12.4,24.2c9.6,4,17.9,1.5,27.5-8.3l5.4-5.5c16.8-17.2,34.1-35,52.1-51.5c7.4-6.8,18.5-9.9,26.4-10.5
			c10.4-0.8,21-0.9,31.2-1c12.7-0.1,25.8-0.3,38.4-1.8c92.2-10.9,176.6-61.3,231.8-138.2c55.1-76.9,75.7-173,56.5-263.6l0,0
			c-1.2-5.5-2.5-11.2-4.1-17l-0.2-0.9c-4.4-16.6-10.1-33-17-48.7c-0.7-1.5-1.3-3-2-4.5c-0.8-1.8-1.5-3.3-2.3-4.9l-1.2-2.4
			c-53.4-110.9-162.2-184-283.8-190.9c-3.6-0.2-7.4-0.4-11.6-0.4c-2.6-0.1-5.2-0.1-7.8-0.1h-1.3c-2,0-3.9,0-5.9,0.1
			c-2.1,0-4,0.1-6,0.2c-118.1,4.7-223.4,69.2-281.6,172.8l-2.9,5.3c-0.9,1.7-1.8,3.5-2.8,5.3c-0.9,1.7-1.7,3.4-2.6,5.1
			c-0.9,1.8-1.7,3.4-2.4,5l-1.5,3.1c-1,2.2-2,4.4-3,6.6c-7,16-12.7,32.5-17,48.9c-1.6,6-3,11.8-4.2,17.5c-5,23.5-7.4,47.4-7.1,71.2
			v2c0,0.9,0.2,2.1,0.3,3.3c0.2,1.2,0.3,2.5,0.4,3.6c1.8,31.4,6.9,61.2,15.1,88.8C179,589.8,179.1,590.1,179.2,590.5z M382.5,874.6
			l-4.5-3c-1.2-0.8-2.3-1.6-3.5-2.4l-4.7-3.3v-3.4c0-5.5-0.1-11.1-0.2-16.6c-0.2-12.5-0.4-25.3,0.5-38.1c1.4-20.1-6.3-33-26.3-44.6
			c-23.9-13.8-45.4-29.7-64.1-47.4l-0.6-0.5c-36.8-35.1-63.4-78.1-79.1-127.8c-10.6-30.7-16.2-62.8-16.6-95.3
			c-0.4-23.9,2.1-47.9,7.4-71.4c30.1-136.2,143-235.9,280.9-248.1c7.9-0.7,15.6-1.1,22.8-1.2c4.1-0.1,8.2-0.1,12.5,0
			c6.9,0.1,14,0.5,21,1.1c0.4,0,0.5,0.1,0.8,0.1c0.4,0,0.9,0.1,1.3,0.1c75.9,6.7,144.2,39.1,197.2,93.7c1.7,1.7,3.3,3.5,5,5.2
			c39.1,41.9,66.2,93.5,78.5,149.2c16.2,73,6,146.6-29.4,212.9l0,0C718,752.2,616.8,809.4,480.6,803.7c-19.4-0.8-35,1.8-48,17.1
			c-10.2,12.1-21.3,23.7-32,34.9c-4.8,5-9.5,10-14.2,15L382.5,874.6z M288.7,706.9c17.9,16.9,38.5,32.1,61.4,45.3
			c24.2,14,34.3,31.4,32.6,56.5c-0.8,12.2-0.6,24.8-0.4,37c0.1,3.4,0.1,6.8,0.1,10.2c2.9-3.1,5.8-6.1,8.8-9.2
			c10.6-11.1,21.5-22.5,31.5-34.3C440,792,460.9,790,481,790.9c130.9,5.5,228.1-49.4,289-163.2l0,0c34-63.5,43.7-134.1,28.2-204.1
			c-11.8-53.5-37.9-103-75.4-143.3c-1.6-1.7-3.2-3.4-4.8-5c-51-52.3-116.4-83.4-189.4-89.8c-0.3,0-0.5,0-0.7-0.1
			c-0.4,0-0.9-0.1-1.3-0.1c-6.6-0.6-13.3-0.9-20-1c-4.1-0.1-8-0.1-12,0c-6.9,0.1-14.3,0.5-21.8,1.2
			c-132.3,11.7-240.6,107.4-269.5,238.2c-5,22.5-7.4,45.5-7.1,68.4c0.4,31.2,5.8,61.9,16,91.5c15,47.8,40.5,89,75.8,122.6
			C288.2,706.4,288.5,706.7,288.7,706.9z"/>
	</g>
</g>
<g class="st0">
	<g class="st3">
		<path d="M536.9,713.2c-10.3-13.8-21-22-33.7-25.9c-34.3-10.6-62.7-1.4-84.4,27.3c-12.6,16.7-24.6,33.4-35.5,49.6
			c-4.8,7.1-8.9,15.6-11.9,24.5c-6.1,18.2-4.1,37,5.7,51.4c9.7,14.3,26,23.1,44.8,24.1c2.7,0.2,18.7,0.2,38.2,0.2
			c30.9,0,70.3-0.2,78.3-0.6c22.3-1.1,39-13.5,46.9-35.1c7.5-20.4,4.2-41-10.4-62.8C562.6,747.6,549.4,729.8,536.9,713.2z
			 M441.1,834.1c-7.5,0.2-15.4,0.3-22.2-1c-7.4-1.4-13.4-5.4-17-11.2c-3.8-6.1-4.6-13.8-2.4-21.7c1.3-4.6,3-9.8,5.6-13.5l1.1-1.6
			c13.5-19.2,27.4-39,42-57.6c10.1-12.8,23.8-17.2,39.5-12.7c7.9,2.2,15.5,6.7,19.2,11.3c15.5,19.1,29.6,39.1,46.1,63.3
			c2.5,3.7,4.3,9.5,5,16c0.8,8-1,14.8-5.2,19.8l0,0c-4.4,5.2-11.2,8.3-19.7,9c-2.2,0.2-4.5,0.1-7,0.1c-1.3,0-2.6,0-3.9,0H518h-0.5
			l-0.9-0.1c-5.9-0.7-68.9-0.3-69.5-0.3C445.1,834,443.1,834,441.1,834.1z"/>
		<path d="M426.8,668c0.3,0,0.6,0,0.9,0c2.9-0.1,5.8-0.5,8.7-1.2c14.3-3.7,25-15.1,29.5-31.2c4.1-15.2,1.2-52.2-24.5-68.8
			c-10.5-6.8-22.1-9.1-32.6-6.3c-11.1,2.9-20.3,10.7-26,22c-11.2,22.3-5.9,53,12.3,71.3C404.2,662.9,415.5,668,426.8,668z
			 M418.1,588.6c2.9,0,5.9,1.3,8.9,3.8c7.2,6,10.8,14.5,12,28.2c0,0.2,0,0.3,0,0.5c-0.1,7.6-2,16.7-9.8,17.5
			c-3.1,0.3-7.9-0.2-12.5-4.4c-9-8.2-13.1-24.8-8.9-36.4c1.7-4.7,4.6-7.9,8.1-8.8C416.6,588.8,417.3,588.7,418.1,588.6
			C418,588.6,418,588.6,418.1,588.6z"/>
		<path d="M389.5,702c-1.6-15.7-17.8-49-47.8-55.2c-12.3-2.5-23.9-0.4-32.7,5.9c-9.3,6.7-15,17.3-16.2,29.9
			c-2.3,24.9,13.7,51.5,37.4,61.9c6.8,3,13.6,4.5,20.2,4.5c5.4,0,10.6-1,15.4-3c2.7-1.1,5.3-2.6,7.6-4.3
			C385.3,733.1,391.2,718.6,389.5,702z M356.4,718c-2.8,1.4-7.4,2.7-13.2,0.5c-11.3-4.3-21.2-18.4-21.5-30.7c-0.1-5,1.4-9,4.3-11.2
			c0.6-0.4,1.2-0.8,1.9-1.1c1.3-0.5,2.7-0.8,4.2-0.8c1.7,0,3.6,0.3,5.6,1c8.9,3,15.4,9.6,21.4,21.9c0,0.1,0.1,0.3,0.2,0.5
			C361.8,705.3,363.4,714.5,356.4,718z"/>
		<path d="M509.3,661.8c2.4,1.6,5.1,2.9,7.8,4c4.3,1.6,8.8,2.4,13.3,2.4c9.9,0,19.9-3.8,28.7-11.2c12.1-10.1,30.8-42.2,19.2-70.5
			c-4.8-11.6-13-20.1-23.2-23.9c-10.7-4-22.7-2.8-33.8,3.2c-22,11.9-35.1,40.1-30.6,65.6C493,644.5,499.6,655.3,509.3,661.8z
			 M545.3,629.6c-4.4,6.1-11.2,12.6-18,8.8c-2.8-1.5-6.4-4.7-7.8-10.7c-2.7-11.8,3.5-27.8,13.4-35c2.9-2.1,5.9-3.2,8.6-3.2
			c1.1,0,2.1,0.2,3.1,0.5c0.7,0.2,1.3,0.6,1.9,1c2.4,1.6,4.3,4.5,5.3,8.3c2.5,9.1,0.6,18.1-6.3,30
			C545.5,629.3,545.4,629.5,545.3,629.6z"/>
		<path d="M662.7,692.1c-0.7-12.5-5.7-23.2-14.1-30.1c-8.8-7.2-20.6-10.1-33-8c-24.6,4.1-46.3,26.5-50.3,52
			c-2.1,13.2,0.7,25.6,7.7,34.8c1.8,2.3,3.8,4.4,6.1,6.3c7.1,5.8,15.7,8.8,25,8.8c5.7,0,11.6-1.1,17.6-3.4
			C636.4,746.8,664.5,722.6,662.7,692.1z M633.6,695.6c-0.6,9.4-5.3,17.3-15.7,26.3c-0.1,0.1-0.3,0.2-0.4,0.3
			c-6.2,4.3-14.7,8.3-19.9,2.4c-2.1-2.4-4.5-6.5-3.8-12.7c1.3-12.1,12.3-25.2,24.1-28.7c1.8-0.5,3.6-0.8,5.2-0.8
			c2.7,0,4.9,0.7,6.7,2.1c0.6,0.5,1.1,1,1.5,1.5C633.1,688.4,633.9,691.7,633.6,695.6z"/>
	</g>
	<g class="st3">
		<path d="M675.2,571.8C762,510.3,800,395.5,760.6,291.5c-46.8-123.5-185.4-185.8-308.8-139c-123.5,46.8-185.8,185.3-139,308.8
			c6.6,17.4,15.1,33.7,25.1,48.5c-12.5,14.4-20.9,32.9-25.4,55.3c-54.5,2.1-94.9,42.8-96.9,98.2c-0.9,25.7,5.7,50.6,20.3,76.3
			c27.5,48.4,40.7,97.1,40.5,149c0,4.6,2.4,8.8,6.4,11.2c2,1.2,4.1,2.4,6.1,3.6c2.3,1.3,4.5,2.7,7,4.2l2.3,1.4
			c2,1.3,4.3,1.9,6.6,1.9c2.1,0,4.2-0.5,6.2-1.6c4.1-2.3,6.5-6.4,6.6-11.1c0.4-63.7-14.9-122.5-46.7-180
			c-7.5-13.5-12.4-27.5-14.2-40.4c-2.9-21,3-41,16.2-54.7c12.3-12.8,29.4-18.9,48.2-17c23.9,2.4,28.6-5.7,30.6-25.8
			c3.1-31.1,16.4-50.8,40.8-60.1c23.9-9.2,45.7-3.5,66.6,17.5c4.2,4.2,10,10,18.3,10c8.2,0,13.9-5.8,18.4-10.4
			c12.1-12.4,25-19.1,39.2-20.5c16.6-1.7,32.7,3.3,45.1,14c13.7,11.7,21.8,28.8,22.8,48.2c0.5,9.5,1,17.6,7.5,23.3
			c6.5,5.6,14.7,4.8,23.5,3.9c30.6-3.2,57.8,17.7,63.3,48.5c3.8,21.2-0.8,42.2-14.4,66c-30.6,53.6-46.1,112-45.9,173.6v0.7
			c0,4.3,2.2,8.3,5.8,10.7s8.1,2.8,12.1,1c2.5-1,4.9-2.1,7.4-3.2l8-3.4c4.7-2,7.7-6.5,7.8-11.6c1-54.9,15.1-105.1,43.3-153.6
			c15-25.8,20.7-52.7,17-80.2C732.8,613.6,711,585,675.2,571.8z M579.4,483.1c-35.5-14.7-69.8-9.3-102,16
			c-32.2-25.3-66.4-30.7-101.8-16.1c-2.3,1-4.5,2-6.7,3c-7.8-11.9-14.4-24.7-19.6-38.5c-39.2-103.3,13-219.2,116.3-258.4
			s219.2,13,258.4,116.3c35.1,92.5-3.1,195-85.6,243.6C628.7,517.5,608.9,495.4,579.4,483.1z"/>
	</g>
	<g class="st3">
		<path d="M558.3,436.6c0,5.5-1.9,10.2-5.8,14s-8.5,5.7-13.9,5.7s-10-1.9-13.8-5.7c-3.8-3.8-5.7-8.5-5.7-14v-6.5
			c-3.9-0.9-8.3-2.4-13.3-4.6s-9.7-4.9-14.1-8.2c-4.4-3.3-8.1-7.1-11.2-11.3s-4.6-9-4.6-14.2s1.8-9.7,5.5-13.3
			c3.7-3.7,8.1-5.5,13.3-5.5c3.9,0,7.4,1.2,10.4,3.6c3.1,2.4,6.3,5,9.6,8c3.4,2.9,7.1,5.6,11.3,8s9.2,3.6,15,3.6
			c3.9,0,7.2-0.7,9.9-2.1s4.8-3.1,6.5-5c1.6-1.9,2.8-4,3.6-6s1.1-3.9,1.1-5.4c0-4.6-1.9-8.4-5.8-11.3c-3.9-2.9-8.3-5.2-13.2-6.8
			l-19-5.8c-5.7-1.8-11.1-4-16.2-6.5c-5.2-2.5-9.7-5.6-13.6-9.2s-7-7.8-9.3-12.5c-2.3-4.8-3.5-10.2-3.5-16.4
			c0-8.7,1.5-15.9,4.4-21.7c2.9-5.8,6.4-10.6,10.5-14.2s8.5-6.4,13.2-8.3s8.9-3.2,12.4-4.1v-0.2c0-5.5,1.9-10.2,5.8-14
			c3.9-3.8,8.5-5.7,13.9-5.7s10,1.9,13.8,5.7s5.7,8.5,5.7,14v1.1c3.4,1,7.1,2.4,11.1,4.1s7.6,3.8,10.9,6.3s6,5.3,8.2,8.5
			s3.2,6.8,3.2,10.9c0,6.4-1.6,11-4.8,13.6s-6.8,3.9-10.7,3.9c-4.2,0-7.7-1-10.7-2.9c-2.9-1.9-5.8-4.1-8.5-6.4
			c-2.8-2.3-5.8-4.4-9-6.4c-3.2-1.9-7.2-2.9-12-2.9s-9,1.5-12.8,4.6c-3.7,3.1-5.6,6.9-5.6,11.5c0,1.5,0.2,3,0.7,4.4s1.3,2.7,2.5,3.9
			c1.2,1.2,2.9,2.4,5,3.6c2.2,1.2,5,2.3,8.4,3.4l20,6c6.1,1.8,11.9,4,17.3,6.7c5.4,2.7,10,6,14,9.9s7.1,8.4,9.4,13.7
			s3.5,11.4,3.5,18.4c0,9.9-1.6,18.1-4.7,24.7c-3.1,6.6-7,11.9-11.4,15.9s-9.2,7.1-14.1,9.1s-9.2,3.5-12.8,4.4L558.3,436.6
			L558.3,436.6z"/>
	</g>
</g>
<g class="st0">
	<g class="st3">
		<path d="M633.2,579.6c55.7-25.5,109.4-50.3,163.2-74.8c7.8-3.6,16.1-7.1,24.5-8.5c26.7-4.3,51.9,10.6,61.4,35.3
			c10,26.2,0.7,54.4-24.6,69.5c-68.3,40.8-136.9,81-205.4,121.4c-15,8.8-30.1,17.5-45,26.6c-21.9,13.3-45.4,19.6-71.2,19.5
			c-88.3-0.4-176.7,0.1-265-0.3c-28-0.1-52.3,8.2-73.5,26.6c-17.1,14.8-34.2,29.8-52.3,43.3c-5.5,4.1-15,6.2-20.9,3.9
			c-5-1.9-10.5-11.4-10.5-17.8c-0.7-68.6-0.7-137.2,0-205.8c0.1-7.1,4.6-15.7,9.7-21c20.7-22,42.6-42.8,63.9-64.3
			c60.1-60.6,177.4-67.2,236.5-7.5c5.3,5.3,15.5,8,23.5,8.2c38.3,0.8,76.7,1.5,115,0C596.4,532.6,621.5,543.3,633.2,579.6z
			 M148.3,789.9c8.3-6.7,45.3-57.5,133.1-56.9c84.9,1.3,169.8,0.8,254.6,0c14.6-0.2,31.2-2.3,43.5-9.3
			C666.2,674.1,752,623,837.9,572c5-3,15.4-13.9,6.4-29.6c-7.4-13-20.4-10.8-27.6-7.7c-45.8,19.8-91.3,40.5-136.2,62.3
			c-24.8,12-48,27.2-72.4,40.1c-8,4.3-17.2,8.7-25.9,8.8c-51.1,0.9-102.3,0.6-153.5,0.5c-12.6,0-20.5-6.4-18.9-19.4
			s11.8-15.6,23.4-15.6c45.9,0.1,91.9-0.1,137.8,0.1c14.5,0.1,25.6-4,26.8-20.4c1-14-8.8-21.7-27.1-21.8
			c-41.9-0.1-83.8,1.4-125.5-0.8c-15.1-0.8-32.9-6.5-44-16.2c-41.4-36.3-87.5-39-137.2-25.3c-35.5,9.8-56.7,38.9-83.3,61.1
			c-25.9,21.7-34.3,46-33.2,79.9C148.9,707.8,148.3,746.6,148.3,789.9z"/>
	</g>
	<path class="st3" d="M559.4,245.2c30.2-23.8,63.1-35.1,101.2-21.1c62.6,23.1,85.2,100.2,41.1,149.9
		c-37.9,42.7-79.8,81.8-120.7,121.9c-13.6,13.4-30.1,12.7-43.6-0.5c-40.3-39.5-81.1-78.5-119.2-120c-33.2-36.2-30.4-91.1,2.6-126.7
		c32.3-34.8,84.3-40.6,124.6-13.7C549.9,238.1,554.2,241.4,559.4,245.2z M560.1,456.9c36.3-36.8,70.8-70.9,104.4-106
		c21.6-22.6,21.4-51.9,1.4-72.8c-20.1-21-51-21.2-74.9-0.6c-29,25.1-34,25-63.9-1c-22.6-19.6-53.2-19.1-73.1,1.1
		c-19.3,19.7-20.8,50.4-1,71.3C487,384.7,522.5,419.1,560.1,456.9z"/>
</g>
</svg>
