<?xml version="1.0" encoding="utf-8"?>
<!-- Generator: Adobe Illustrator 28.1.0, SVG Export Plug-In . SVG Version: 6.00 Build 0)  -->
<svg version="1.1" id="Camada_1" xmlns="http://www.w3.org/2000/svg" xmlns:xlink="http://www.w3.org/1999/xlink" x="0px" y="0px"
	 viewBox="0 0 1000 1000" style="enable-background:new 0 0 1000 1000;" xml:space="preserve">
<style type="text/css">
	.st0{stroke:#000000;stroke-width:3;stroke-miterlimit:10;}
	.st1{stroke:#000000;stroke-width:4;stroke-miterlimit:10;}
	.st2{display:none;}
	.st3{display:inline;}
	.st4{fill:#FFFFFF;}
</style>
<g>
	<path class="st0" d="M782.42,360.98c0.78,4.39,1.27,8.77,1.51,13.16c0.52,22.21-6.06,44.64-20.21,69.38
		C725.1,511,705.65,584.59,705.91,662.26c0.21,63.49,0.16,128.05,0.12,190.48c-0.01,19.27-0.02,38.54-0.03,57.81
		c0,4.14,3.39,7.5,7.53,7.44c10.64-0.14,21.29-0.35,31.92-0.66c4.01-0.12,7.2-3.41,7.21-7.42c0.04-17.13,0.09-34.27,0.17-51.4
		c0.29-61.43,0.59-124.95-0.66-187.48c-1.52-76.18,16.56-145.59,55.27-212.22c18.65-32.1,25.79-65.71,21.22-99.9
		c-7.01-52.36-35.43-88.38-82.21-104.14c-11.1-3.74-22.62-5.24-33.75-6.68c-0.02,0-0.04,0-0.05-0.01c-3.17-0.41-5.67-2.83-6.31-5.96
		c-9.88-48.12-35.86-81.17-77.41-98.37c-43.05-17.82-84.63-11.8-123.82,17.86c-2.65,2-6.3,1.86-8.95-0.14
		c-39.15-29.56-80.59-35.59-123.4-17.9c-41.19,17.03-67.28,50.23-77.73,98.83c-0.7,3.26-3.47,5.61-6.8,5.82
		c-65.78,4.16-114.33,54.05-116.72,121.52c-1.13,31.96,7.18,63.09,25.4,95.19c36.25,63.84,53.19,128.17,51.78,196.65
		c-0.62,30.27-0.46,60.98-0.31,90.67c0.07,13.47,0.14,26.95,0.14,40.42l0,37.79c0,26.26,0,52.51-0.01,78.77
		c0,4.25,3.55,7.61,7.8,7.41c5.02-0.24,10.04-0.45,15.06-0.62c5.47-0.18,10.94-0.32,16.41-0.43c4.05-0.08,7.29-3.37,7.29-7.42
		c-0.02-17.86-0.04-35.72-0.07-53.59c-0.12-61.18-0.24-124.45,0.27-186.63c0.66-80.41-18.61-154.8-58.9-227.42
		c-7.87-14.19-13.5-28.77-16.59-42.69c-0.37-1.96-0.71-3.91-0.98-5.84c-3.92-28.16,4.06-54.95,21.91-73.51
		c16.75-17.42,39.93-25.63,65.27-23.12c23.49,2.33,28.78-2.71,31.29-22.29c0.49-2.75,0.88-5.78,1.22-9.13
		c0.2-1.99,0.45-3.91,0.72-5.83c5.95-35.52,23.51-58.5,53.55-70.02c32.39-12.42,61.76-4.82,89.79,23.24
		c5.08,5.09,10.86,10.81,18.63,10.83c7.83-0.03,13.42-5.71,18.82-11.21c16.25-16.53,33.51-25.51,52.76-27.47
		c22.46-2.28,44.13,4.43,61.05,18.91c10.68,9.14,18.8,20.72,24.03,33.9c2.81,8.19,4.52,16.94,5,26.08
		c0.44,8.35,0.87,15.43,3.68,21.12c1.02,3.3,2.6,6.11,5.25,8.38c6.23,5.33,14.46,4.48,24.89,3.41
		C738.07,291.03,774.98,319.27,782.42,360.98z"/>
	<path class="st0" d="M570.87,439.13c-12.15-16.18-24.62-25.83-39.24-30.35c-40.31-12.46-73.66-1.68-99.11,32.04
		c-15.76,20.87-30.67,41.71-44.32,61.93c-5.73,8.48-10.65,18.58-14.24,29.2c-7.11,21.02-4.76,42.58,6.44,59.14
		c11.04,16.33,29.8,26.39,51.48,27.61c8.91,0.5,129.82,0.31,145.24-0.43c25.37-1.23,44.35-15.44,53.43-40.01
		c8.75-23.67,4.7-47.66-12.39-73.33C602.96,482.08,586.46,459.89,570.87,439.13z M600.23,579.88c-6.54,7.82-16.49,12.45-28.77,13.4
		c-3.03,0.23-6.13,0.17-9.42,0.1c-1.58-0.03-3.16-0.07-4.74-0.07h-5.38l-0.01,0.12c-0.82-0.1-1.63-0.19-2.45-0.29
		c-6.27-0.76-76.06-0.38-86.31-0.29c-2.47,0.02-4.95,0.07-7.44,0.12c-9.78,0.2-19.89,0.4-29.13-1.38
		c-10.92-2.11-19.88-8.05-25.21-16.72c-5.6-9.09-6.88-20.44-3.61-31.95c1.77-6.22,4.08-13.3,7.88-18.72l1.37-1.95
		c16.89-24.1,34.36-49.02,52.83-72.41c14.03-17.78,33.88-24.17,55.88-18.02c11.19,3.13,21.58,9.33,27.13,16.17
		c19.57,24.14,37.36,49.31,58.04,79.68c3.71,5.45,6.27,13.58,7.22,22.89C609.27,562.18,606.55,572.32,600.23,579.88z"/>
	<path class="st0" d="M438.66,372.85c3.18-0.07,6.35-0.51,9.48-1.32c15.6-4.05,27.66-16.72,32.62-34.89
		c4.69-17.15,1.53-60.35-28.18-79.54c-11.53-7.45-24.17-10.28-36.14-7.18c-12.16,3.15-22.34,11.81-28.66,24.39
		c-12.94,25.76-6.77,61.17,14.35,82.36C412.93,367.52,425.84,373.15,438.66,372.85z M408.1,288.81c2.81-7.84,7.86-13.1,14.21-14.83
		c1.35-0.36,2.72-0.56,4.11-0.59c5.09-0.12,10.41,1.97,15.35,6.09c10.46,8.75,15.62,20.67,17.17,39.79
		c-0.21,0.96,1.16,26.76-17.74,28.61c-6.56,0.64-13.84-1.17-20.28-7.02C407.81,328.95,402.07,305.61,408.1,288.81z"/>
	<path class="st0" d="M384.95,422.13c-1.86-17.68-20.48-56.78-55.13-63.88c-13.44-2.75-26.26-0.8-36.28,6.43
		c-10.19,7.35-16.53,19.12-17.85,33.14c-2.71,28.7,15.9,59.45,43.27,71.53c14,6.18,28.08,6.74,39.91,1.81
		c2.93-1.22,5.73-2.78,8.35-4.67C380.29,457.04,386.92,440.86,384.95,422.13z M352.16,446.97c-5.88,2.98-13.32,3.94-21.45,0.82
		c-16.52-6.33-30.35-26-30.83-43.85c-0.22-8.32,2.57-15.06,7.85-18.97c1.12-0.83,2.33-1.51,3.62-2.05c4.7-1.96,10.42-1.94,16.51,0.1
		c12.93,4.35,22.06,13.59,30.44,30.84C358.46,414.84,369.11,438.39,352.16,446.97z"/>
	<path class="st0" d="M544.33,366.08c2.65,1.75,5.5,3.21,8.54,4.33c15.12,5.59,32.25,2.07,46.7-10.01
		c13.64-11.4,35.72-48.66,22.29-81.38c-5.21-12.7-13.97-22.24-25.56-26.53c-11.78-4.36-25.09-3.06-37.46,3.66
		c-25.33,13.75-40.49,46.34-35.26,75.81C526.26,347.01,533.65,359,544.33,366.08z M567.25,279.64c6.79-4.83,13.93-6.27,20.13-4.06
		c1.31,0.47,2.55,1.09,3.71,1.86c4.25,2.81,7.42,7.57,9.12,13.76c3.6,13.16,1.02,25.89-8.63,42.47
		c-0.72,0.66-14.33,22.63-30.9,13.35c-5.75-3.22-10.69-8.86-12.64-17.35C544.08,312.43,552.7,289.98,567.25,279.64z"/>
	<path class="st0" d="M727.27,409.39c-0.79-13.7-5.95-25.58-15.51-33.42c-9.72-7.96-22.72-11.07-36.6-8.76
		c-28.44,4.74-53.39,30.61-58.05,60.17c-2.38,15.12,0.69,28.86,8.48,39.04c1.93,2.52,4.16,4.83,6.66,6.87
		c12.48,10.21,29.82,12.47,47.42,5.77C696.27,472.73,729.29,444.7,727.27,409.39z M680.81,451.19c-0.9,0.39-20.93,16.72-33.57,2.54
		c-4.39-4.92-7.22-11.87-6.29-20.52c1.89-17.59,17.36-36,34.48-41.04c7.99-2.35,15.22-1.38,20.35,2.73c1.09,0.87,2.06,1.87,2.9,2.97
		c3.1,4.04,4.55,9.57,4.13,15.99C701.93,427.47,695.33,438.67,680.81,451.19z"/>
</g>
<g class="st2">
	<g class="st3">
		<g>
			<path d="M731.89,433.41c-4.79-35.79-24.19-60.39-56.1-71.15c-7.57-2.55-15.53-3.59-23.23-4.59c-1.77-0.23-3.57-0.46-5.38-0.72
				c-5.92-35.79-24.03-60.17-53.87-72.53c-30.98-12.83-60.88-7.53-88.96,15.73c-28.11-23.26-57.95-28.6-88.8-15.85
				c-29.69,12.27-47.91,36.91-54.22,73.28c-47.78,0.21-83.69,35.18-85.39,83.19c-0.78,21.97,4.95,43.39,17.51,65.51
				c24.79,43.65,36.75,87.64,36.57,134.48l0,0c-0.01,2.56,1.35,4.92,3.57,6.2l0,0c1.84,1.06,3.68,2.13,5.51,3.21
				c2.09,1.24,4.17,2.51,6.25,3.77l2.03,1.23c4.73,2.87,10.78-0.5,10.82-6.03l0,0c0.38-55.79-13.02-107.4-40.98-157.79
				c-6.92-12.47-11.45-25.38-13.12-37.35c-2.78-19.97,2.88-38.97,15.53-52.13c11.87-12.35,28.32-18.17,46.28-16.39
				c17.92,1.78,20.91-2.48,22.56-19.12c2.92-29.38,15.67-48.01,38.97-56.94c22.97-8.8,43.8-3.42,63.68,16.48
				c3.61,3.61,7.7,7.67,13.21,7.68c5.55-0.02,9.51-4.05,13.35-7.95c11.53-11.72,23.77-18.09,37.41-19.48
				c15.93-1.62,31.3,3.14,43.29,13.41c13.04,11.16,20.75,27.43,21.73,45.81h0c0.42,8.03,0.73,13.83,5.19,17.65
				c4.42,3.78,10.26,3.18,17.65,2.42c29.4-3.02,55.58,17.01,60.85,46.59c3.55,19.9-0.67,39.43-13.28,61.46
				c-26.86,46.93-40.39,98.11-40.21,152.13l0,0.65c0.02,5.1,5.24,8.53,9.93,6.51l0,0c2.19-0.94,4.38-1.87,6.57-2.8l7.13-3.03
				c2.59-1.1,4.29-3.62,4.34-6.43l0,0c0.85-49.5,13.61-94.81,39.01-138.52C730.13,479.93,735.03,456.86,731.89,433.41z"/>
			<path d="M351.08,661.02c-2.13,0-4.26-0.59-6.18-1.75l-2.62-1.6c-1.86-1.13-3.73-2.27-5.61-3.38c-1.81-1.07-3.63-2.13-5.46-3.18
				c-3.7-2.13-5.99-6.1-5.97-10.37c0.18-45.98-11.58-89.19-35.95-132.09c-13.01-22.91-18.94-45.16-18.13-68.04
				c1.75-49.32,37.73-85.62,86.18-87.71c7.22-35.97,26.17-60.53,56.38-73.01c31.47-13.01,61.94-8.25,90.63,14.13
				c28.66-22.37,59.19-27.09,90.79-14.01c30.47,12.61,49.34,37.06,56.14,72.68c0.55,0.07,1.11,0.14,1.66,0.22
				c8.16,1.06,16.36,2.12,24.38,4.83c33.75,11.38,54.26,37.33,59.31,75.05l0,0c3.28,24.53-1.83,48.62-15.19,71.61
				c-24.98,42.98-37.53,87.53-38.37,136.2c-0.08,4.7-2.93,8.92-7.25,10.75l-7.13,3.03c-2.19,0.93-4.37,1.86-6.55,2.79
				c-3.68,1.58-7.87,1.22-11.23-0.98c-3.35-2.2-5.36-5.9-5.38-9.91l0-0.65c-0.18-54.86,13.56-106.85,40.84-154.52
				c12.02-21.01,16.06-39.51,12.72-58.25c-4.83-27.09-28.75-45.45-55.65-42.67c-7.88,0.8-15.28,1.56-21.25-3.55
				c-6.02-5.15-6.41-12.51-6.86-21.03c-0.9-17.05-8.03-32.12-20.06-42.43c-10.98-9.41-25.09-13.76-39.7-12.29
				c-12.49,1.27-23.77,7.18-34.48,18.08c-4.1,4.16-9.19,9.35-16.74,9.38c-7.56-0.02-12.79-5.25-16.61-9.08
				c-18.66-18.67-37.27-23.56-58.58-15.4c-21.44,8.22-33.19,25.54-35.92,52.95c-1.78,17.92-6.23,25.55-27.8,23.41
				c-16.48-1.63-31.53,3.68-42.36,14.95c-11.63,12.1-16.82,29.65-14.24,48.16c1.59,11.39,5.93,23.73,12.56,35.69
				c28.37,51.13,41.97,103.51,41.58,160.14c-0.03,4.34-2.31,8.2-6.1,10.31C355.06,660.51,353.07,661.02,351.08,661.02z
				 M447.72,282.39c-9.99,0-20.11,2.11-30.33,6.34c-28.05,11.6-45.32,35.04-51.34,69.68l-0.69,3.95l-4.01,0.02
				c-45.11,0.2-79.02,33.24-80.63,78.57c-0.75,21.06,4.78,41.66,16.88,62.97c25.21,44.4,37.38,89.17,37.2,136.86
				c0,0.84,0.44,1.62,1.17,2.03c1.86,1.07,3.72,2.15,5.57,3.25c1.91,1.13,3.8,2.28,5.7,3.44l2.62,1.6c1.05,0.64,1.99,0.24,2.35,0.04
				c0.36-0.2,1.19-0.79,1.2-2.02c0.38-54.94-12.83-105.78-40.38-155.44c-7.2-12.98-11.93-26.47-13.68-39.01
				c-2.98-21.43,3.15-41.88,16.82-56.11c12.91-13.43,30.74-19.77,50.21-17.84c14.82,1.47,15.88-0.29,17.33-14.84
				c3.12-31.36,16.86-51.29,42.02-60.94c24.93-9.55,47.42-3.8,68.78,17.57c3.08,3.08,6.26,6.27,9.84,6.27
				c3.53-0.01,6.49-3.03,9.92-6.51c12.34-12.55,25.54-19.38,40.34-20.89c17.25-1.76,33.9,3.41,46.89,14.54
				c14.04,12.02,22.35,29.49,23.4,49.19c0.41,7.74,0.75,11.89,3.52,14.26c2.72,2.33,6.9,2.03,14.03,1.3
				c31.99-3.27,60.35,18.43,66.07,50.51c3.76,21.06-0.64,41.62-13.83,64.68c-26.44,46.19-39.75,96.57-39.57,149.74l0,0.65
				c0,1.08,0.66,1.68,1.06,1.94c0.39,0.26,1.2,0.62,2.2,0.19c2.2-0.94,4.39-1.88,6.59-2.81l7.13-3.03c0.85-0.36,1.41-1.19,1.42-2.11
				c0.87-50.34,13.84-96.41,39.66-140.84c12.27-21.11,16.97-43.16,13.97-65.54l0,0c-4.53-33.86-22.82-57.11-52.88-67.25
				c-7.13-2.4-14.85-3.4-22.32-4.37c-1.95-0.25-3.69-0.48-5.43-0.72l-3.48-0.49l-0.57-3.47c-5.63-34.04-22.78-57.22-50.98-68.89
				c-29.2-12.08-57.48-7.04-84.08,14.99l-3.05,2.53l-3.05-2.53C484.05,289.55,466.12,282.39,447.72,282.39z"/>
		</g>
		<g>
			<path d="M587.34,534.09c-10.79-16.2-22.48-31.94-33.54-46.66c-8.62-11.48-17.46-18.31-27.82-21.52
				c-28.58-8.84-52.23-1.19-70.29,22.72c-11.17,14.8-21.75,29.58-31.43,43.92c-4.06,6.01-7.55,13.17-10.1,20.7
				c-5.04,14.91-3.38,30.2,4.56,41.94c7.83,11.58,21.13,18.72,36.51,19.58c6.32,0.35,92.06,0.22,103-0.31
				c17.99-0.87,31.45-10.95,37.89-28.37C602.33,569.31,599.46,552.3,587.34,534.09z M574.62,587.25c-4.64,5.55-11.69,8.83-20.4,9.5
				c-2.15,0.17-4.35,0.12-6.68,0.07c-1.12-0.02-2.24-0.05-3.36-0.05h-3.82l-0.01,0.09c-0.58-0.07-1.16-0.14-1.74-0.21
				c-4.45-0.54-53.94-0.27-61.21-0.21c-1.75,0.01-3.51,0.05-5.28,0.09c-6.94,0.14-14.11,0.29-20.66-0.98
				c-7.75-1.5-14.1-5.71-17.88-11.85c-3.97-6.45-4.88-14.5-2.56-22.66c1.25-4.41,2.9-9.43,5.58-13.27l0.97-1.38
				c11.98-17.09,24.37-34.76,37.46-51.35c9.95-12.61,24.02-17.14,39.62-12.78c7.93,2.22,15.31,6.61,19.24,11.47
				c13.88,17.12,26.49,34.97,41.16,56.5c2.63,3.86,4.45,9.63,5.12,16.23C581.03,574.69,579.1,581.88,574.62,587.25z"/>
			<path d="M488.9,619.75c-17.27,0-31.53-0.07-33.94-0.2c-16.88-0.95-31.53-8.85-40.21-21.68c-8.78-12.99-10.65-29.82-5.13-46.15
				c2.68-7.93,6.37-15.48,10.66-21.85c9.73-14.41,20.35-29.26,31.58-44.13c19.4-25.69,44.8-33.91,75.52-24.41
				c11.38,3.52,20.99,10.89,30.24,23.22c11.09,14.76,22.82,30.55,33.7,46.88l0,0c13.03,19.57,16.07,37.99,9.29,56.31
				c-7.15,19.33-22.12,30.52-42.15,31.49C551.43,619.58,516.37,619.75,488.9,619.75z M503.85,467.09
				c-17.39,0-32.01,8.09-44.34,24.42c-11.12,14.73-21.65,29.44-31.28,43.71c-3.82,5.67-7.12,12.43-9.53,19.56
				c-4.56,13.48-3.1,27.23,3.99,37.73c6.98,10.33,18.94,16.7,32.81,17.48c5.82,0.33,91.79,0.21,102.5-0.31
				c16.19-0.78,27.82-9.52,33.64-25.25c5.64-15.25,2.93-30.85-8.28-47.69c-10.73-16.12-22.38-31.78-33.38-46.44
				c-7.98-10.63-16.06-16.93-25.41-19.82C517.25,468.22,510.36,467.09,503.85,467.09z M544.76,602.11l-6.71-0.71
				c-3.64-0.44-47.25-0.28-60.61-0.17c-1.73,0.02-3.47,0.05-5.21,0.09c-7.19,0.14-14.61,0.29-21.67-1.07
				c-9.08-1.75-16.55-6.74-21.05-14.04c-4.68-7.61-5.78-17.01-3.09-26.48c1.36-4.79,3.17-10.29,6.27-14.71l0.97-1.39
				c12.02-17.14,24.44-34.86,37.63-51.57c11.22-14.22,27.09-19.34,44.67-14.43c8.97,2.51,17.07,7.39,21.67,13.06
				c13.97,17.23,26.66,35.18,41.4,56.82c3.07,4.51,5.18,11.06,5.93,18.44c0.97,9.55-1.34,17.97-6.67,24.35
				c-5.48,6.55-13.68,10.43-23.71,11.2c-2.38,0.19-4.7,0.13-7.15,0.09c-0.88-0.02-1.75-0.03-2.63-0.04L544.76,602.11z
				 M540.36,591.99h3.82c1.15,0,2.3,0.02,3.45,0.04c2.22,0.05,4.3,0.1,6.22-0.06c7.4-0.57,13.32-3.27,17.11-7.8l0,0
				c3.64-4.35,5.19-10.31,4.49-17.24c-0.58-5.74-2.16-10.85-4.32-14.02c-14.61-21.45-27.15-39.21-40.92-56.19
				c-3.29-4.06-9.89-7.94-16.81-9.87c-13.82-3.85-25.78-0.01-34.58,11.14c-13.02,16.5-25.36,34.1-37.3,51.13l-0.97,1.38
				c-2.28,3.26-3.76,7.81-4.9,11.83c-1.95,6.86-1.23,13.55,2.03,18.85c3.07,4.99,8.3,8.42,14.71,9.66
				c6.06,1.17,12.97,1.03,19.65,0.89c1.78-0.04,3.56-0.07,5.33-0.09c0.57-0.01,56.55-0.4,61.82,0.24l0.8,0.09L540.36,591.99z"/>
		</g>
		<g>
			<path d="M469.91,358.35c-8.17-5.28-17.14-7.29-25.63-5.09c-8.63,2.23-15.84,8.38-20.32,17.3c-9.18,18.27-4.8,43.38,10.18,58.41
				c7.66,7.69,16.82,11.68,25.9,11.47c2.25-0.05,4.5-0.36,6.72-0.94c11.07-2.87,19.61-11.86,23.13-24.74
				C493.22,402.59,490.98,371.95,469.91,358.35z M474.42,402.43c-0.15,0.68,0.82,18.98-12.58,20.29c-4.65,0.45-9.81-0.83-14.38-4.98
				c-9.28-8.44-13.36-25-9.08-36.91c2-5.56,5.57-9.29,10.07-10.51c0.95-0.26,1.93-0.4,2.92-0.42c3.61-0.08,7.38,1.4,10.88,4.32
				C469.66,380.42,473.32,388.88,474.42,402.43z"/>
			<path d="M459.37,445.22c-10.18,0-20.32-4.56-28.62-12.88c-16.37-16.42-21.12-43.91-11.06-63.93c5.11-10.17,13.42-17.2,23.4-19.78
				c9.48-2.45,19.92-0.43,29.42,5.71l0,0c23.05,14.89,25.73,48.05,22,61.68c-3.97,14.52-13.64,24.76-26.55,28.11
				c-2.56,0.67-5.19,1.03-7.81,1.09C459.89,445.22,459.63,445.22,459.37,445.22z M451.24,357.15c-1.95,0-3.88,0.24-5.76,0.73
				c-7.27,1.88-13.4,7.14-17.25,14.81c-8.29,16.51-4.3,39.24,9.29,52.88c6.65,6.67,14.69,10.27,22.4,10.06
				c1.89-0.04,3.78-0.31,5.63-0.79c9.49-2.46,16.68-10.25,19.72-21.37c2.7-9.89,1.37-38.63-17.96-51.12
				C461.97,358.91,456.51,357.15,451.24,357.15z M460.08,427.59c-5.76,0-11.32-2.2-15.84-6.31c-10.77-9.79-15.32-28.26-10.37-42.07
				c2.54-7.07,7.27-11.87,13.32-13.52c1.33-0.36,2.69-0.56,4.06-0.59c4.84-0.08,9.67,1.77,14.05,5.43
				c8.4,7.02,12.68,16.74,13.88,31.5l0.06,0.72l-0.07,0.37c-0.42,20.53-11.94,23.87-16.88,24.35
				C461.56,427.55,460.81,427.59,460.08,427.59z M451.65,374.68c-0.06,0-0.12,0-0.18,0c-0.6,0.01-1.2,0.1-1.78,0.26
				c-2.95,0.8-5.37,3.47-6.82,7.51c-3.62,10.08-0.05,24.62,7.8,31.75c3.95,3.59,7.99,4.02,10.7,3.76c5.28-0.52,8.05-5.57,8.24-15.02
				c0-0.15,0.01-0.29,0.01-0.42c-1.01-11.99-4.14-19.37-10.45-24.63C456.66,375.78,454.06,374.68,451.65,374.68z"/>
		</g>
		<g>
			<path d="M382.86,430.08c-9.53-1.95-18.62-0.57-25.73,4.56c-7.23,5.21-11.72,13.56-12.66,23.5
				c-1.92,20.35,11.28,42.16,30.69,50.73c9.93,4.38,19.91,4.78,28.3,1.28c2.08-0.87,4.06-1.97,5.92-3.32
				c9.27-6.69,13.97-18.17,12.57-31.45C420.63,462.84,407.43,435.11,382.86,430.08z M403.06,469.52c0.11,0.69,7.66,17.39-4.36,23.47
				c-4.17,2.11-9.45,2.79-15.21,0.58c-11.71-4.49-21.52-18.44-21.86-31.09c-0.16-5.9,1.82-10.68,5.57-13.45
				c0.8-0.59,1.65-1.07,2.56-1.45c3.33-1.39,7.39-1.38,11.71,0.07C390.64,450.73,397.12,457.29,403.06,469.52z"/>
			<path d="M391.42,517.27c-5.94,0-12.12-1.35-18.19-4.03c-21.21-9.36-35.62-33.24-33.52-55.55c1.07-11.33,6.26-20.9,14.62-26.93
				c7.94-5.73,18.41-7.63,29.49-5.37c26.89,5.51,41.42,35.43,42.9,49.48c1.57,14.97-3.72,28.03-14.53,35.83
				c-2.14,1.54-4.45,2.84-6.88,3.85C400.96,516.37,396.27,517.27,391.42,517.27z M374.74,434.01c-5.64,0-10.67,1.52-14.82,4.51
				c-6.09,4.4-9.89,11.52-10.69,20.07c-1.73,18.39,10.24,38.13,27.86,45.9c8.61,3.8,17.33,4.24,24.53,1.24
				c1.75-0.73,3.42-1.66,4.96-2.78c7.95-5.74,11.82-15.61,10.62-27.08c-1.07-10.19-12.75-36.49-35.3-41.11l0,0
				C379.43,434.26,377.03,434.01,374.74,434.01z M390.59,499.71c-2.93,0-5.91-0.56-8.82-1.67c-13.59-5.21-24.54-20.77-24.93-35.43
				c-0.2-7.51,2.46-13.7,7.51-17.43c1.1-0.81,2.3-1.49,3.57-2.02c4.45-1.85,9.66-1.87,15.07-0.04
				c10.38,3.49,17.89,10.99,24.37,24.32l0.38,1.01c7.06,19.28-2.46,26.58-6.89,28.82C397.65,498.89,394.15,499.71,390.59,499.71z
				 M375.16,451.33c-1.3,0-2.5,0.22-3.56,0.66c-0.56,0.23-1.08,0.53-1.56,0.88c-2.46,1.82-3.75,5.18-3.63,9.48
				c0.29,10.71,8.89,22.96,18.79,26.75c4.98,1.91,8.91,0.85,11.34-0.38c4.73-2.4,5.48-8.11,2.22-16.99
				c-0.05-0.14-0.1-0.27-0.14-0.39c-5.29-10.8-10.89-16.54-18.68-19.16C378.25,451.61,376.64,451.33,375.16,451.33z"/>
		</g>
		<g>
			<path d="M589.96,373.89c-3.69-9-9.91-15.77-18.13-18.82c-8.36-3.09-17.79-2.17-26.56,2.59c-17.97,9.75-28.71,32.87-25,53.76
				c1.9,10.69,7.13,19.19,14.71,24.21c1.88,1.24,3.9,2.27,6.05,3.07c10.72,3.96,22.87,1.47,33.12-7.1
				C583.82,423.51,599.48,397.09,589.96,373.89z M568.48,412.65c-0.51,0.47-10.16,16.05-21.92,9.47c-4.08-2.28-7.58-6.29-8.96-12.3
				c-2.8-12.23,3.31-28.15,13.62-35.48c4.81-3.42,9.88-4.44,14.27-2.88c0.93,0.33,1.81,0.77,2.63,1.32
				c3.01,1.99,5.26,5.37,6.47,9.76C577.15,391.86,575.32,400.89,568.48,412.65z"/>
			<path d="M551.37,445.34c-4.05,0-8.09-0.71-12-2.15c-2.47-0.91-4.84-2.11-7.04-3.57c-8.71-5.77-14.67-15.49-16.78-27.36
				c-4.05-22.83,7.74-48.1,27.43-58.8c10-5.43,20.83-6.45,30.51-2.88c9.18,3.4,16.6,11.03,20.89,21.49v0
				c10.42,25.39-6.33,54.14-17.17,63.2C569.28,441.9,560.28,445.34,551.37,445.34z M561.72,358.06c-4.68,0-9.51,1.28-14.16,3.81
				c-16.24,8.82-25.94,29.76-22.58,48.72c1.65,9.27,6.14,16.75,12.64,21.06c1.58,1.05,3.29,1.91,5.07,2.57
				c9.2,3.4,19.55,1.11,28.39-6.28c7.86-6.57,23.19-30.93,14.45-52.22c-3.31-8.07-8.63-13.65-15.36-16.15
				C567.47,358.56,564.62,358.06,561.72,358.06z M552.5,428.48c-3.63,0-6.53-1.21-8.27-2.19c-5.74-3.21-9.75-8.69-11.29-15.41
				c-3.25-14.18,3.57-31.95,15.51-40.45c6.13-4.35,12.75-5.59,18.66-3.49c1.29,0.46,2.52,1.08,3.67,1.84
				c4.01,2.66,6.93,6.98,8.44,12.49c2.89,10.56,0.85,20.98-6.6,33.79l-0.62,0.88C564.8,425.84,557.85,428.48,552.5,428.48z
				 M561.31,375.52c-2.28,0-4.8,0.92-7.31,2.71c-8.73,6.21-14.1,20.18-11.74,30.52c1.19,5.2,4.27,7.87,6.64,9.2
				c5.77,3.23,11.53-2.37,15.35-7.63c0.09-0.12,0.17-0.23,0.25-0.33c6.02-10.42,7.66-18.26,5.49-26.19
				c-0.89-3.24-2.44-5.68-4.49-7.03c-0.5-0.33-1.05-0.61-1.61-0.81C563.08,375.66,562.21,375.52,561.31,375.52z"/>
		</g>
		<g>
			<path d="M664.7,466.34c-0.56-9.72-4.22-18.14-11-23.7c-6.89-5.65-16.11-7.85-25.96-6.21c-20.16,3.36-37.86,21.71-41.17,42.67
				c-1.69,10.72,0.49,20.47,6.01,27.68c1.37,1.79,2.95,3.42,4.72,4.87c8.85,7.24,21.14,8.84,33.62,4.09
				C642.72,511.26,666.14,491.38,664.7,466.34z M631.76,495.99c-0.63,0.28-14.84,11.86-23.8,1.8c-3.11-3.49-5.12-8.41-4.46-14.55
				c1.34-12.47,12.31-25.53,24.45-29.1c5.67-1.67,10.79-0.98,14.43,1.93c0.77,0.62,1.46,1.32,2.06,2.11
				c2.2,2.87,3.23,6.79,2.93,11.34C646.74,479.16,642.06,487.1,631.76,495.99z"/>
			<path d="M616.83,523.26c-8.36,0-16.15-2.67-22.54-7.9c-2.04-1.67-3.89-3.58-5.49-5.67c-6.36-8.29-8.82-19.42-6.94-31.34
				c3.61-22.9,23-42.95,45.11-46.64c11.21-1.87,21.8,0.69,29.78,7.23c7.57,6.2,12.1,15.84,12.74,27.12l0,0
				c1.57,27.4-23.63,49.12-36.84,54.15C627.3,522.25,621.96,523.26,616.83,523.26z M634,440.69c-1.78,0-3.61,0.15-5.47,0.46
				c-18.23,3.04-34.23,19.67-37.23,38.69c-1.47,9.3,0.34,17.84,5.09,24.03c1.15,1.5,2.48,2.87,3.95,4.08
				c7.59,6.22,18.12,7.42,28.89,3.32c9.58-3.65,32.01-21.68,30.69-44.66c-0.5-8.71-3.7-15.72-9.26-20.27
				C646.14,442.63,640.35,440.69,634,440.69z M617.05,506.65c-6.57,0-10.71-3.48-12.67-5.68c-4.38-4.91-6.38-11.39-5.65-18.25
				c1.55-14.47,13.79-29.04,27.86-33.18c7.21-2.12,13.87-1.13,18.77,2.79c1.07,0.86,2.03,1.84,2.87,2.93
				c2.93,3.82,4.28,8.85,3.9,14.56c-0.71,10.93-6.04,20.11-17.26,29.78l-0.88,0.63C627.17,505.02,621.54,506.65,617.05,506.65z
				 M633.76,458.03c-1.38,0-2.88,0.23-4.46,0.7c-10.28,3.02-19.92,14.48-21.05,25.02c-0.57,5.3,1.47,8.83,3.28,10.86
				c3.52,3.96,9.24,3.21,16.99-2.21c0.12-0.08,0.23-0.16,0.34-0.23c9.08-7.89,13.19-14.77,13.73-22.97
				c0.22-3.35-0.46-6.16-1.95-8.11c-0.37-0.48-0.79-0.91-1.26-1.29C637.91,458.63,635.99,458.03,633.76,458.03z"/>
		</g>
	</g>
	<g class="st3">
		<path d="M837.46,419.27c-1.23-5.86-2.63-11.64-4.17-17.36c0-0.14-0.04-0.28-0.11-0.42c-4.56-17.29-10.42-34.02-17.43-50.05
			c-0.67-1.58-1.37-3.12-2.07-4.66c-0.74-1.65-1.51-3.26-2.28-4.88c-0.39-0.81-0.77-1.61-1.16-2.42
			C756.65,228.31,647.13,152.1,521.01,144.94c-3.93-0.25-7.89-0.39-11.82-0.46c-2.63-0.07-5.26-0.11-7.89-0.11h-1.26
			c-2.03,0-4.1,0.04-6.14,0.07c-2.03,0.04-4.07,0.11-6.14,0.18c-120.12,4.73-228.11,71.79-286.78,176.02
			c-0.98,1.79-1.96,3.54-2.95,5.33c-0.95,1.82-1.89,3.61-2.84,5.4c-0.95,1.82-1.86,3.65-2.77,5.47c-0.81,1.61-1.61,3.23-2.38,4.88
			c-0.49,1.05-0.98,2.1-1.47,3.16c-1.05,2.24-2.07,4.52-3.05,6.8c-6.94,15.96-12.8,32.58-17.33,49.8
			c-1.58,5.86-3.02,11.78-4.28,17.78c-5.16,24.3-7.51,48.61-7.22,72.56v1.89c0.07,2.38,0.6,5.05,0.74,7.33
			c1.82,32.13,6.98,62.25,15.43,90.38c0.11,0.28,0.21,0.56,0.28,0.84c18.66,57.55,52.33,109.53,96.9,150.21
			c0.25,0.21,0.49,0.46,0.74,0.67c7.08,6.24,14.52,12.28,22.27,18.13c11.64,8.77,24.06,17.11,37.21,25.01
			c10,6.03,13.47,12.63,13.12,23.78c-0.74,22.2-0.04,44.44-0.25,66.64c-0.14,13.26,3.12,24.66,16.34,30.2
			c13.75,5.75,24.66,0.35,34.51-9.75c18.76-19.22,37.46-38.61,57.24-56.78c5.61-5.16,14.77-8.24,22.55-8.84
			c23.25-1.79,46.82-0.11,69.9-2.84C740.77,805.37,878.53,613.01,837.46,419.27z M775.59,630.72
			c-62.25,116.33-162.42,172.06-294.88,166.52c-21.32-0.91-38.75,2.31-53.17,19.36c-14.55,17.22-30.62,33.18-46.01,49.7
			c-1.82-1.23-3.61-2.49-5.4-3.72c0-18.1-0.98-36.26,0.25-54.26c1.61-24.06-8.77-38.61-29.46-50.54
			c-23.46-13.54-44.44-29-62.88-46.47c-0.07-0.11-0.18-0.21-0.28-0.28c-35.95-34.16-62.11-75.93-77.65-125.38
			c-10.66-30.9-15.92-62.39-16.34-93.47c-0.35-23.67,2.14-47.14,7.22-69.9c27.71-125.35,132.96-230.6,275.21-243.19
			c7.47-0.67,14.91-1.09,22.31-1.19c2.21-0.04,4.38-0.07,6.59-0.07c1.86,0,3.75,0.03,5.65,0.07c6.8,0.11,13.64,0.46,20.55,1.05
			c0.63,0.07,1.26,0.07,1.89,0.14c77.72,6.87,144.39,41.42,193.38,91.78c1.65,1.68,3.26,3.4,4.88,5.12
			c38.12,40.93,64.88,91.68,76.95,146.25C819.36,489.66,811.86,562.92,775.59,630.72z"/>
		<path d="M370.42,915.66c-4.39,0-8.85-0.96-13.42-2.87c-20.55-8.61-20.33-29.34-20.26-36.15c0.08-8.57,0.03-17.15-0.03-25.74
			c-0.09-13.43-0.18-27.33,0.28-41.04c0.28-8.95-2.16-13.35-10.04-18.11c-13.24-7.94-25.94-16.48-37.75-25.37
			c-8.01-6.06-15.63-12.26-22.65-18.44c-0.11-0.09-0.31-0.28-0.51-0.46l-0.31-0.28c-45.6-41.62-79.72-94.52-98.67-152.95l-0.32-0.98
			c-8.57-28.52-13.85-59.43-15.69-91.85c-0.05-0.85-0.18-1.8-0.3-2.77c-0.19-1.45-0.39-3.1-0.44-4.73l0-2.08
			c-0.29-24.61,2.19-49.5,7.36-73.89c1.23-5.85,2.7-11.95,4.36-18.12c4.47-17,10.4-34.06,17.63-50.69c1-2.32,2.04-4.66,3.12-6.97
			l1.47-3.14c0.8-1.71,1.63-3.37,2.46-5.03c1-2.01,1.89-3.78,2.82-5.56c0.96-1.82,1.9-3.59,2.84-5.4l3.02-5.46
			c60.51-107.48,169.7-174.5,292.12-179.33c2.27-0.08,4.27-0.14,6.27-0.18c2.18-0.04,4.23-0.07,6.25-0.07h1.26
			c2.69,0,5.37,0.04,8.06,0.11c4.3,0.08,8.25,0.23,12.04,0.47c126.24,7.16,239.13,83.09,294.59,198.14l1.17,2.44
			c0.79,1.65,1.59,3.32,2.35,5.02c0.75,1.65,1.45,3.2,2.12,4.79c7.12,16.27,13.06,33.29,17.62,50.54c0.14,0.39,0.24,0.78,0.31,1.18
			c1.57,5.86,2.97,11.67,4.14,17.27l0,0c19.95,94.11-1.42,193.85-58.63,273.64c-57.24,79.83-144.96,132.12-240.66,143.44
			c-13.26,1.57-26.73,1.72-39.75,1.87c-10.02,0.11-20.38,0.23-30.4,1c-7.12,0.55-14.65,3.43-18.73,7.17
			c-17.76,16.31-34.96,33.96-51.6,51.02l-5.38,5.52C389.39,911,380.1,915.66,370.42,915.66z M179.25,590.46
			c18.28,56.28,51.15,107.22,95.09,147.32l0.65,0.59c6.78,5.97,14.15,11.97,21.9,17.83c11.45,8.62,23.78,16.9,36.65,24.63
			c11.79,7.12,16.64,15.92,16.21,29.45c-0.45,13.48-0.36,27.24-0.27,40.55c0.06,8.65,0.11,17.3,0.03,25.95
			c-0.14,13.47,3.46,20.49,12.43,24.25c9.63,4.03,17.85,1.54,27.48-8.32l5.38-5.52c16.76-17.19,34.09-34.96,52.11-51.51
			c7.43-6.82,18.5-9.9,26.38-10.5c10.44-0.8,21.01-0.92,31.23-1.04c12.69-0.14,25.82-0.29,38.4-1.78
			c92.15-10.9,176.63-61.28,231.79-138.21c55.13-76.88,75.72-172.95,56.52-263.56l0-0.01c-1.15-5.51-2.53-11.23-4.09-17.01
			l-0.22-0.85c-4.4-16.6-10.12-32.99-17-48.72c-0.66-1.55-1.32-3-1.97-4.45c-0.79-1.77-1.54-3.33-2.29-4.89l-1.16-2.42
			c-53.44-110.86-162.2-184.03-283.84-190.93c-3.64-0.23-7.41-0.37-11.57-0.45c-2.63-0.07-5.2-0.1-7.78-0.1h-1.26
			c-1.95,0-3.92,0.03-5.87,0.07c-2.09,0.04-4.02,0.1-5.99,0.17c-118.13,4.66-223.36,69.25-281.64,172.78l-2.91,5.27
			c-0.88,1.71-1.84,3.51-2.79,5.31c-0.87,1.67-1.73,3.39-2.59,5.11c-0.9,1.79-1.68,3.36-2.43,4.96l-1.47,3.15
			c-1.03,2.19-2.02,4.41-2.97,6.63c-6.98,16.05-12.7,32.49-17.01,48.9c-1.61,5.98-3.02,11.84-4.21,17.47
			c-4.98,23.48-7.37,47.43-7.09,71.18v1.97c0.03,0.94,0.19,2.14,0.34,3.31c0.16,1.25,0.31,2.48,0.38,3.63
			c1.78,31.39,6.87,61.24,15.12,88.76C179.04,589.78,179.15,590.12,179.25,590.46z M382.48,874.63l-4.52-3.04
			c-1.17-0.79-2.33-1.59-3.48-2.39l-4.74-3.27v-3.36c0-5.54-0.09-11.08-0.19-16.62c-0.21-12.46-0.42-25.35,0.45-38.07
			c1.35-20.13-6.26-33.05-26.28-44.58c-23.88-13.78-45.44-29.71-64.08-47.36l-0.56-0.55c-36.84-35.1-63.45-78.11-79.07-127.84
			c-10.58-30.66-16.2-62.77-16.64-95.29c-0.35-23.87,2.13-47.88,7.38-71.38c30.11-136.22,142.98-235.95,280.87-248.15
			c7.89-0.7,15.56-1.11,22.78-1.22c4.12-0.07,8.23-0.08,12.45,0c6.89,0.11,13.96,0.47,20.98,1.07c0.36,0.04,0.55,0.05,0.75,0.06
			c0.43,0.02,0.87,0.05,1.3,0.1c75.91,6.71,144.17,39.11,197.25,93.67c1.66,1.7,3.31,3.45,4.95,5.2
			c39.06,41.94,66.21,93.53,78.52,149.24c16.21,72.98,6.05,146.59-29.4,212.85h0c-63.37,118.43-164.58,175.61-300.77,169.88
			c-19.44-0.82-35.05,1.76-48.03,17.1c-10.21,12.08-21.27,23.67-31.97,34.88c-4.77,5-9.54,10-14.25,15.05L382.48,874.63z
			 M288.69,706.94c17.86,16.86,38.52,32.11,61.41,45.32c24.25,13.98,34.32,31.4,32.64,56.49c-0.83,12.19-0.62,24.8-0.42,37
			c0.06,3.41,0.11,6.82,0.15,10.24c2.91-3.07,5.83-6.13,8.75-9.2c10.56-11.07,21.49-22.52,31.45-34.3
			c17.29-20.45,38.24-22.49,58.31-21.61c130.87,5.5,228.12-49.43,288.98-163.16l0,0c33.99-63.54,43.74-134.11,28.19-204.07
			c-11.82-53.49-37.89-103.03-75.39-143.28c-1.57-1.67-3.15-3.35-4.77-5.01c-50.94-52.36-116.42-83.44-189.39-89.89
			c-0.34-0.04-0.54-0.04-0.74-0.05c-0.43-0.02-0.87-0.05-1.3-0.1c-6.57-0.57-13.33-0.91-19.95-1.02c-4.12-0.08-8.04-0.06-12.04,0
			c-6.92,0.1-14.26,0.49-21.84,1.17C340.43,197.17,232.12,292.9,203.21,423.66c-5.03,22.53-7.41,45.55-7.07,68.43
			c0.42,31.16,5.8,61.94,15.99,91.48c15.03,47.84,40.52,89.04,75.8,122.64C288.2,706.43,288.45,706.68,288.69,706.94z"/>
	</g>
</g>
<g class="st2">
	<g class="st3">
		<path d="M536.93,713.19c-10.34-13.77-21.05-22-33.74-25.92c-34.3-10.6-62.69-1.43-84.35,27.26
			c-12.62,16.71-24.57,33.42-35.52,49.64c-4.81,7.12-8.93,15.57-11.93,24.45c-6.15,18.21-4.08,36.95,5.71,51.42
			c9.66,14.29,25.98,23.08,44.8,24.14c2.7,0.15,18.74,0.23,38.16,0.23c30.9,0,70.35-0.19,78.27-0.57
			c22.29-1.08,38.95-13.53,46.91-35.06c7.55-20.43,4.15-40.99-10.4-62.85C562.63,747.59,549.41,729.82,536.93,713.19z
			 M441.06,834.08c-7.55,0.15-15.37,0.31-22.23-1.02c-7.39-1.43-13.41-5.39-16.95-11.15c-3.75-6.1-4.59-13.8-2.35-21.68
			c1.3-4.58,2.98-9.76,5.6-13.5l1.1-1.57c13.45-19.18,27.35-39.01,42-57.57c10.07-12.76,23.75-17.16,39.55-12.74
			c7.9,2.21,15.45,6.65,19.23,11.31c15.51,19.13,29.64,39.13,46.09,63.28c2.48,3.65,4.29,9.5,4.96,16.05
			c0.81,7.96-0.99,14.82-5.19,19.85v0c-4.37,5.23-11.17,8.34-19.66,8.99c-2.19,0.17-4.55,0.12-7.05,0.07
			c-1.3-0.03-2.59-0.05-3.88-0.05h-4.3l-0.45,0.01l-0.94-0.11c-5.85-0.7-68.87-0.27-69.51-0.27
			C445.09,833.99,443.09,834.04,441.06,834.08z"/>
		<path d="M426.8,667.96c0.29,0,0.58,0,0.87-0.01c2.91-0.07,5.82-0.47,8.66-1.21c14.31-3.72,25.05-15.1,29.46-31.22
			c4.15-15.2,1.18-52.18-24.51-68.77c-10.54-6.81-22.14-9.07-32.65-6.35c-11.06,2.87-20.28,10.67-25.96,21.96
			c-11.21,22.32-5.91,52.96,12.34,71.28C404.25,662.9,415.5,667.96,426.8,667.96z M418.12,588.56c2.86,0,5.91,1.29,8.85,3.75
			c7.24,6.05,10.83,14.48,11.97,28.17c-0.01,0.15-0.01,0.31-0.02,0.49c-0.15,7.56-1.98,16.73-9.81,17.49
			c-3.15,0.3-7.9-0.2-12.5-4.38c-8.99-8.17-13.08-24.83-8.93-36.38c1.7-4.74,4.57-7.88,8.09-8.83c0.69-0.19,1.41-0.29,2.13-0.31
			C417.97,588.56,418.04,588.56,418.12,588.56z"/>
		<path d="M389.46,702c-1.65-15.67-17.84-49.04-47.81-55.18c-12.3-2.51-23.92-0.41-32.72,5.94c-9.27,6.69-15.03,17.3-16.21,29.89
			c-2.34,24.87,13.72,51.49,37.38,61.93c6.76,2.98,13.64,4.48,20.24,4.48c5.38,0,10.58-1,15.39-3c2.69-1.12,5.26-2.56,7.63-4.27
			C385.34,733.13,391.21,718.63,389.46,702z M356.36,718.05c-2.84,1.44-7.44,2.68-13.24,0.46c-11.34-4.35-21.2-18.39-21.53-30.65
			c-0.13-5.04,1.4-9,4.33-11.16c0.58-0.43,1.21-0.78,1.88-1.06c1.27-0.53,2.69-0.79,4.23-0.79c1.73,0,3.6,0.33,5.57,1
			c8.94,3.01,15.35,9.56,21.39,21.9c0.05,0.14,0.1,0.29,0.16,0.46C361.75,705.29,363.38,714.5,356.36,718.05z"/>
		<path d="M509.27,661.76c2.43,1.61,5.05,2.94,7.8,3.95c4.33,1.6,8.8,2.39,13.29,2.39c9.9,0,19.9-3.82,28.72-11.2
			c12.09-10.1,30.77-42.16,19.15-70.45c-4.77-11.62-13-20.09-23.17-23.86c-10.72-3.96-22.74-2.83-33.85,3.2
			c-21.95,11.92-35.1,40.1-30.58,65.56C492.99,644.55,499.6,655.35,509.27,661.76z M545.34,629.62c-4.44,6.11-11.17,12.6-18.04,8.75
			c-2.77-1.55-6.37-4.68-7.76-10.74c-2.71-11.84,3.45-27.85,13.44-34.97c2.93-2.08,5.88-3.15,8.57-3.15c1.08,0,2.13,0.17,3.11,0.52
			c0.68,0.24,1.33,0.57,1.93,0.97c2.43,1.61,4.26,4.47,5.3,8.26c2.49,9.1,0.61,18.07-6.26,29.97
			C545.54,629.34,545.44,629.47,545.34,629.62z"/>
		<path d="M662.71,692.06c-0.72-12.54-5.74-23.23-14.13-30.11c-8.84-7.25-20.57-10.09-33.04-8.01
			c-24.64,4.11-46.26,26.47-50.28,52.01c-2.09,13.25,0.65,25.61,7.7,34.82c1.77,2.31,3.82,4.42,6.08,6.28
			c7.08,5.8,15.73,8.76,25,8.76c5.7,0,11.64-1.12,17.59-3.39C636.36,746.81,664.47,722.6,662.71,692.06z M633.64,695.58
			c-0.62,9.41-5.31,17.29-15.69,26.29c-0.12,0.08-0.26,0.17-0.4,0.27c-6.19,4.33-14.68,8.26-19.91,2.39
			c-2.12-2.37-4.5-6.5-3.83-12.68c1.3-12.08,12.34-25.21,24.11-28.67c1.83-0.54,3.58-0.8,5.19-0.8c2.65,0,4.94,0.72,6.71,2.13
			c0.56,0.45,1.07,0.97,1.51,1.55C633.09,688.37,633.89,691.66,633.64,695.58z"/>
	</g>
	<g class="st3">
		<path d="M675.18,571.79c86.79-61.53,124.84-176.24,85.39-280.25c-46.83-123.47-185.37-185.79-308.81-138.96
			c-123.47,46.83-185.79,185.34-138.99,308.81c6.64,17.44,15.08,33.67,25.08,48.52c-12.46,14.41-20.92,32.87-25.36,55.3
			c-54.47,2.11-94.94,42.84-96.89,98.17c-0.93,25.65,5.72,50.6,20.32,76.28c27.47,48.4,40.73,97.11,40.54,148.99
			c-0.03,4.57,2.43,8.85,6.42,11.15c2.04,1.18,4.09,2.36,6.13,3.58c2.27,1.34,4.5,2.68,7,4.22l2.3,1.37
			c2.04,1.28,4.34,1.88,6.64,1.88c2.11,0,4.25-0.54,6.23-1.63c4.09-2.27,6.55-6.42,6.58-11.08c0.42-63.67-14.85-122.51-46.74-179.98
			c-7.51-13.51-12.43-27.5-14.22-40.38c-2.94-21.02,2.97-40.95,16.2-54.69c12.33-12.84,29.42-18.88,48.17-17.03
			c23.93,2.4,28.62-5.65,30.63-25.81c3.1-31.08,16.42-50.76,40.79-60.09c23.89-9.17,45.68-3.45,66.57,17.47
			c4.22,4.22,10.03,10.03,18.27,10.03c8.24-0.03,13.9-5.75,18.43-10.38c12.14-12.36,24.98-19.07,39.16-20.51
			c16.64-1.69,32.65,3.26,45.14,13.96c13.67,11.72,21.75,28.81,22.78,48.17c0.51,9.46,0.96,17.63,7.54,23.26
			c6.52,5.59,14.73,4.76,23.48,3.87c30.57-3.16,57.79,17.7,63.28,48.49c3.77,21.24-0.8,42.2-14.41,65.97
			c-30.64,53.57-46.1,111.97-45.87,173.62v0.73c0,4.31,2.17,8.31,5.78,10.67c3.61,2.36,8.11,2.75,12.08,1.05
			c2.46-1.05,4.92-2.11,7.38-3.16l8.02-3.39c4.66-1.98,7.7-6.52,7.79-11.56c0.96-54.88,15.11-105.13,43.29-153.62
			c14.95-25.75,20.67-52.74,16.99-80.21C732.8,613.61,711.02,585.05,675.18,571.79z M579.41,483.14
			c-35.49-14.69-69.77-9.33-101.97,15.97c-32.2-25.3-66.41-30.73-101.78-16.1c-2.3,0.96-4.54,1.95-6.71,3.03
			c-7.76-11.88-14.38-24.73-19.61-38.53c-39.2-103.31,12.97-219.2,116.28-258.4c103.28-39.16,219.2,12.97,258.37,116.28
			c35.11,92.51-3.07,195.05-85.58,243.61C628.7,517.45,608.92,495.35,579.41,483.14z"/>
	</g>
	<g class="st3">
		<path d="M558.26,436.63c0,5.53-1.94,10.2-5.83,14.01c-3.89,3.81-8.52,5.72-13.9,5.72s-9.97-1.91-13.79-5.72
			c-3.81-3.81-5.72-8.48-5.72-14.01v-6.5c-3.89-0.9-8.33-2.43-13.34-4.6c-5.01-2.17-9.72-4.89-14.12-8.18
			c-4.41-3.29-8.15-7.06-11.21-11.32c-3.06-4.26-4.6-9-4.6-14.23c0-5.23,1.83-9.67,5.49-13.34c3.66-3.66,8.1-5.49,13.34-5.49
			c3.89,0,7.36,1.2,10.42,3.59c3.06,2.39,6.28,5.04,9.64,7.96c3.36,2.91,7.13,5.57,11.32,7.96c4.18,2.39,9.19,3.59,15.02,3.59
			c3.88,0,7.17-0.71,9.86-2.13c2.69-1.42,4.85-3.1,6.5-5.04c1.64-1.94,2.84-3.96,3.59-6.05c0.75-2.09,1.12-3.88,1.12-5.38
			c0-4.63-1.94-8.41-5.83-11.32c-3.89-2.92-8.29-5.19-13.22-6.84l-19.05-5.83c-5.68-1.79-11.1-3.96-16.25-6.5
			c-5.16-2.54-9.68-5.6-13.56-9.19c-3.89-3.59-6.99-7.77-9.3-12.55c-2.32-4.78-3.47-10.23-3.47-16.36c0-8.66,1.46-15.92,4.37-21.74
			c2.91-5.83,6.42-10.57,10.53-14.23c4.11-3.66,8.52-6.42,13.23-8.29c4.71-1.87,8.85-3.25,12.44-4.15v-0.22
			c0-5.53,1.94-10.2,5.83-14.01c3.88-3.81,8.52-5.72,13.9-5.72s9.97,1.91,13.79,5.72c3.81,3.81,5.72,8.48,5.72,14.01v1.12
			c3.43,1.05,7.13,2.43,11.09,4.15c3.96,1.72,7.58,3.81,10.87,6.28c3.29,2.47,6.01,5.31,8.18,8.52c2.17,3.22,3.25,6.84,3.25,10.87
			c0,6.43-1.61,10.95-4.82,13.56c-3.22,2.62-6.76,3.92-10.65,3.92c-4.18,0-7.73-0.97-10.65-2.92c-2.91-1.94-5.75-4.07-8.52-6.39
			c-2.77-2.31-5.76-4.44-8.97-6.39c-3.22-1.94-7.21-2.91-11.99-2.91c-4.78,0-9.04,1.53-12.78,4.6c-3.74,3.06-5.6,6.91-5.6,11.54
			c0,1.5,0.22,2.95,0.67,4.37c0.45,1.42,1.27,2.73,2.47,3.92c1.19,1.2,2.87,2.39,5.04,3.59c2.16,1.2,4.97,2.32,8.41,3.36l19.95,6.05
			c6.13,1.79,11.88,4.04,17.26,6.72c5.38,2.69,10.05,5.98,14.01,9.86c3.96,3.89,7.1,8.44,9.41,13.67
			c2.31,5.23,3.47,11.36,3.47,18.38c0,9.86-1.57,18.08-4.71,24.66c-3.14,6.58-6.95,11.88-11.43,15.92
			c-4.48,4.04-9.19,7.06-14.12,9.08c-4.93,2.02-9.19,3.47-12.78,4.37V436.63z"/>
	</g>
</g>
</svg>
